<?xml version="1.0" encoding="UTF-8"?>
<svg viewBox="0 0 480 640" xmlns="http://www.w3.org/2000/svg" xmlns:xlink="http://www.w3.org/1999/xlink">
 <defs>
  <filter id="aj">
   <feGaussianBlur stdDeviation=".93751"/>
  </filter>
  <filter id="ai">
   <feGaussianBlur stdDeviation=".86069"/>
  </filter>
  <filter id="ah" x="-.10895" y="-.02331" width="1.2179" height="1.0466">
   <feGaussianBlur stdDeviation="1.14335"/>
  </filter>
  <filter id="ak" x="-.44436" y="-.08133" width="1.8887" height="1.1627">
   <feGaussianBlur stdDeviation="24.70573"/>
  </filter>
  <linearGradient id="c">
   <stop stop-color="#9eb7bf" offset="0"/>
   <stop stop-color="#8a999e" offset=".13996"/>
   <stop stop-color="#718186" offset=".19942"/>
   <stop stop-color="#718991" offset=".57605"/>
   <stop stop-color="#101011" offset="1"/>
  </linearGradient>
  <linearGradient id="b">
   <stop stop-color="#5f5f5f" offset="0"/>
   <stop stop-color="#3e3e3e" offset="1"/>
  </linearGradient>
  <linearGradient id="a">
   <stop stop-color="#4f626d" offset="0"/>
   <stop stop-color="#515a5e" offset="1"/>
  </linearGradient>
  <linearGradient id="g">
   <stop stop-color="#586f76" offset="0"/>
   <stop stop-color="#505f63" offset=".5"/>
   <stop stop-color="#494f51" offset="1"/>
  </linearGradient>
  <linearGradient id="p" x2="0" y1="983.96" y2="53.003" gradientUnits="userSpaceOnUse">
   <stop stop-color="#515a5e" offset="0"/>
   <stop stop-color="#68767e" offset=".25"/>
   <stop stop-color="#5d6c73" offset=".84787"/>
   <stop stop-color="#4f626c" offset="1"/>
  </linearGradient>
  <linearGradient id="f">
   <stop stop-color="#505d63" offset="0"/>
   <stop stop-color="#506068" offset=".13642"/>
   <stop stop-color="#5d6c73" offset=".34996"/>
   <stop stop-color="#65747b" offset=".6685"/>
   <stop stop-color="#7c868f" offset="1"/>
  </linearGradient>
  <linearGradient id="aa" x1="300.39" x2="320.45" gradientUnits="userSpaceOnUse">
   <stop stop-color="#0d1b24" offset="0"/>
   <stop stop-color="#3c3c3c" offset="1"/>
  </linearGradient>
  <linearGradient id="d">
   <stop stop-color="#090b11" offset="0"/>
   <stop stop-color="#535458" offset="1"/>
  </linearGradient>
  <linearGradient id="o" x1="135.69" x2="289.64" gradientUnits="userSpaceOnUse">
   <stop stop-color="#4f626c" offset="0"/>
   <stop stop-color="#4f5d6a" offset=".4357"/>
   <stop stop-color="#505e62" offset=".94291"/>
   <stop stop-color="#4f5e62" offset="1"/>
  </linearGradient>
  <linearGradient id="e">
   <stop stop-color="#4c6470" offset="0"/>
   <stop stop-color="#314047" offset="1"/>
  </linearGradient>
  <linearGradient id="n" x1="-506.01" x2="-496.76" gradientUnits="userSpaceOnUse">
   <stop stop-color="#b2b2b2" offset="0"/>
   <stop stop-color="#f1f1f1" offset="1"/>
  </linearGradient>
  <linearGradient id="ac" x1="101.36" x2="149" y1="930.86" y2="883.1" gradientTransform="matrix(1.467 -.07656 .05635 1.2525 .0348 -157.77)" gradientUnits="userSpaceOnUse" xlink:href="#c"/>
  <linearGradient id="af" x1="105.55" x2="191.08" gradientTransform="matrix(1.467 -.07656 .05635 1.2525 4.4668 -110.39)" gradientUnits="userSpaceOnUse" xlink:href="#b"/>
  <linearGradient id="x" x1="584.45" x2="311.42" y1="52.68" y2="42.237" gradientUnits="userSpaceOnUse" xlink:href="#a"/>
  <linearGradient id="ab" x2="0" y1="46.411" y2="996.93" gradientUnits="userSpaceOnUse" xlink:href="#a"/>
  <linearGradient id="y" x1="134.99" x2="285.69" gradientUnits="userSpaceOnUse" xlink:href="#a"/>
  <linearGradient id="ae" x1="99.793" x2="147.44" y1="892.94" y2="845.18" gradientUnits="userSpaceOnUse" xlink:href="#c"/>
  <linearGradient id="ag" x1="105.55" x2="191.08" gradientUnits="userSpaceOnUse" xlink:href="#b"/>
  <linearGradient id="ad" x1="139.16" x2="289.9" gradientUnits="userSpaceOnUse" xlink:href="#g"/>
  <linearGradient id="z" x2="0" y1="31.841" y2="995.38" gradientUnits="userSpaceOnUse" xlink:href="#g"/>
  <linearGradient id="t" x1="103.39" x2="149.8" y1="920.74" y2="931.47" gradientTransform="matrix(-1.469 .00635 .01442 1.2537 751.96 -192.12)" gradientUnits="userSpaceOnUse" xlink:href="#c"/>
  <linearGradient id="u" x1="105.55" x2="191.08" gradientTransform="matrix(-1.469 .00635 .01442 1.2537 750.21 -144.57)" gradientUnits="userSpaceOnUse" xlink:href="#b"/>
  <linearGradient id="w" x1="360.14" x2="535.22" gradientUnits="userSpaceOnUse" xlink:href="#f"/>
  <linearGradient id="v" x1="362.54" x2="537.61" gradientUnits="userSpaceOnUse" xlink:href="#f"/>
  <linearGradient id="q" x1="467" x2="443.12" y1="521.74" y2="525.85" gradientUnits="userSpaceOnUse" xlink:href="#a"/>
  <linearGradient id="r" x1="551.62" x2="554.03" gradientUnits="userSpaceOnUse" xlink:href="#d"/>
  <linearGradient id="s" x1="549.7" x2="559.32" gradientUnits="userSpaceOnUse" xlink:href="#b"/>
  <linearGradient id="l" x1="-523.9" x2="-507.85" gradientUnits="userSpaceOnUse" xlink:href="#e"/>
  <linearGradient id="m" x1="-522.93" x2="-506.87" gradientUnits="userSpaceOnUse" xlink:href="#e"/>
  <radialGradient id="i" cx="386.79" cy="965.39" r="1.591" gradientTransform="matrix(1 -5.7765e-6 6.1064e-6 .99994 -.01072 .05894)" gradientUnits="userSpaceOnUse">
   <stop stop-color="#b4b2b4" offset="0"/>
   <stop stop-color="#cbcbcb" offset="1"/>
  </radialGradient>
  <radialGradient id="h" cx="-501.38" cy="467.45" r="4.6252" gradientTransform="matrix(1 0 0 1.3631 0 -169.73)" gradientUnits="userSpaceOnUse">
   <stop stop-color="#dadada" offset="0"/>
   <stop stop-color="#dadada" stop-opacity="0" offset="1"/>
  </radialGradient>
  <radialGradient id="j" cx="386.79" cy="965.39" r="1.591" gradientTransform="matrix(1.2417 -4.2239e-6 5.8349e-6 1.7153 -93.486 -690.5)" gradientUnits="userSpaceOnUse" xlink:href="#d"/>
  <radialGradient id="k" cx="386.79" cy="965.39" r="1.591" gradientTransform="matrix(1.2417 -4.6035e-6 5.8349e-6 1.5738 -93.486 -553.97)" gradientUnits="userSpaceOnUse" xlink:href="#d"/>
 </defs>
 <g transform="matrix(.59855 0 0 .59855 19.361 3.685)">
  <path d="m197.42 995.8c-0.3432-8.4449-2.7494-15.684 9.948-19.933l78.837-13.509 49.09 35.294-125.34 9.2047-12.53-11.057z" fill="url(#ac)"/>
  <path d="m221.32 986.05 83.06-11.924 45.411 21.763c-22.871 9.3557-93.213 7.3184-139.84 10.973-0.84095-16.789 4.0176-19.275 11.37-20.811z" fill="url(#af)"/>
  <path d="m311.91 31.441 266.42 9.1036c6.3112 0.23142 5.8873 2.2076 6.1233 3.6223l-0.1233 8.5126-272.91-7.5 0.48614-13.738z" fill="url(#x)"/>
  <path d="m313.31 46.027 46.816 1.3852 2.0596 947.68-41.143 2.6293-7.7326-951.69z" fill="url(#ab)"/>
  <path d="m138.79 96.22 146.4-60.525v18.519l-149.47 56.349-0.19577-9.5927c-0.24482-2.9179 1.2355-4.1107 3.2691-4.7502z" fill="url(#y)"/>
  <path d="m96.793 891.63c0.02504-6.7408-0.38483-13.675 8.3802-16.531l53.601-8.9202 32.304 30.153-85.524 2.1213-8.761-6.8227z" fill="url(#ae)"/>
  <path d="m113.92 882.35 56.851-6.0452 20.304 20.028-85.524 2.1213c-0.0582-13.408 3.322-15.186 8.3691-16.104z" fill="url(#ag)"/>
  <path d="m289.15 986.02-0.0215-16.733-149.21-128.61c0.14604 4.1609-0.38442 10.859 0.59726 11.886l148.63 133.46h2e-5z" fill="url(#ad)"/>
  <path d="m139.85 839 149.4 128.86-0.19841 1.8771-149.26-128.92 0.0548-1.8205h-1e-5z"/>
  <path d="m285.26 35.576c0.50425-0.1112 1.1394-0.51757 1.7117-0.65275 3.8959-0.92019 9.223-2.306 13.998-2.9324l-0.0241 1.2232 4.6642 962.11-15.015-8.7107-5.2408-951.31-0.0938 0.28125h2e-5z" fill="url(#z)"/>
  <path d="m288.8 968.73 1.7219 1.0625 0.0625 16.76-1.5969-0.5625-0.1875-17.26z"/>
  <path d="m608.23 972.45c0.16373-3.3968-3.6836-7.0567-7.0392-7.2917l-70.082-2.285-48.662 17.505 125.66 2.1164 0.11816-10.044z" fill="url(#t)"/>
  <path d="m593.2 971.21-99.469 0.30471-13.86 15.166c1.8778 11.854 138.5-6.949 128.24-4.1866-2.894-14.214-7.6845-11.024-14.908-11.284z" fill="url(#u)"/>
  <path d="m531.08 53.003 53.327 1.5616 0.0619 924.2c-0.0196 1.6159-0.99309 3.7953-6.6436 3.6402l-47.539 1.5538 0.79413-930.96h5e-5z" fill="url(#p)"/>
  <path d="m360.29 47.778 174.78 5.4801-0.48543 466.17-173.16 2-1.1317-473.65z" fill="url(#w)"/>
  <path d="m362.69 522.44 172.3-3.0052-0.13188 464.76-171.75 11.192-0.42462-472.94z" fill="url(#v)"/>
  <path d="m292.23 48.92c0.42504-1.7586 10.751-4.0102 19.853-4.513l28.49 1.2766 50.432 1.3818 192.08 5.848c1.9142 0.80487 0.84869 1.1841 0.42564 1.6551l-190.75-5.5298-31.467-0.60393 1.3778 471.85 171.77-1.781 0.18676-465.2 1.8586-1.2338-0.5455 466.41 45.012-0.46672c0.91695 0.1525 3.3395 0.45676 1.1852 1.4406l-46.324 0.68732 0.0349 463.79-1.5171 0.0972-0.71784-405.35c-57.097 2.2082-114.19 3.0186-171.29 2.8717l0.0441-1.3565c57.713 0.22802 114.93-0.52578 171.24-3.1201l0.5279-56.909-171.32 2.5419c-0.50995 6.0128 0.92205 467.01 0.41211 472.81l-2.278-0.20894-0.4778-474.02-1.8774-473.19-23.84-0.58866-23.337-1.2144c-5.6051-0.29168-16.271 1.5599-15.61 3.0453l-0.0152 20.915 2.3009 449.6c-0.73478 1.8852 7.3796 1.4333 9.5283 1.5716l54.073-0.0477-0.68537 1.5962-53.902-0.0815c-4.8634 0.12587-10.891-0.62511-12.149-2.7203l-2.722-456.13v-15.135h9e-5v-3e-5l-5e-5 -2e-5z"/>
  <path d="m300.89 31.9c2.8072-0.61132 6.4092-0.86744 11.101-0.48744l1.3351 0.06448c2.2026 321.69 5.7176 655.73 7.9202 966.07l-1.3003 0.78238c-6.1842-0.22366-11.987-0.17654-14.371-3.0494l-4.6846-963.38z" fill="url(#aa)"/>
  <path transform="matrix(6.7903 0 0 7.0653 -2071.4 -6323.9)" d="m388.38 965.39c0 0.87868-0.71231 1.591-1.591 1.591s-1.591-0.71231-1.591-1.591 0.71231-1.591 1.591-1.591 1.591 0.71231 1.591 1.591z"/>
  <path d="m432.5 521.74h34.5c-6.5751 18.265-25.904 18.78-34 2.5l-0.5-2.5z" fill="url(#q)" opacity=".87906"/>
  <path transform="translate(-2.5524 -.16118)" d="m388.38 965.39c0 0.87868-0.71231 1.591-1.591 1.591s-1.591-0.71231-1.591-1.591 0.71231-1.591 1.591-1.591 1.591 0.71231 1.591 1.591z"/>
  <path transform="translate(12.713 -.52588)" d="m388.38 965.39c0 0.87868-0.71231 1.591-1.591 1.591s-1.591-0.71231-1.591-1.591 0.71231-1.591 1.591-1.591 1.591 0.71231 1.591 1.591z"/>
  <path transform="translate(27.963 -1.4009)" d="m388.38 965.39c0 0.87868-0.71231 1.591-1.591 1.591s-1.591-0.71231-1.591-1.591 0.71231-1.591 1.591-1.591 1.591 0.71231 1.591 1.591z"/>
  <path transform="translate(43.338 -2.4009)" d="m388.38 965.39c0 0.87868-0.71231 1.591-1.591 1.591s-1.591-0.71231-1.591-1.591 0.71231-1.591 1.591-1.591 1.591 0.71231 1.591 1.591z"/>
  <path transform="translate(57.838 -2.7759)" d="m388.38 965.39c0 0.87868-0.71231 1.591-1.591 1.591s-1.591-0.71231-1.591-1.591 0.71231-1.591 1.591-1.591 1.591 0.71231 1.591 1.591z"/>
  <path transform="translate(72.088 -3.6509)" d="m388.38 965.39c0 0.87868-0.71231 1.591-1.591 1.591s-1.591-0.71231-1.591-1.591 0.71231-1.591 1.591-1.591 1.591 0.71231 1.591 1.591z"/>
  <path transform="translate(86.588 -4.5259)" d="m388.38 965.39c0 0.87868-0.71231 1.591-1.591 1.591s-1.591-0.71231-1.591-1.591 0.71231-1.591 1.591-1.591 1.591 0.71231 1.591 1.591z"/>
  <path transform="translate(100.96 -5.5259)" d="m388.38 965.39c0 0.87868-0.71231 1.591-1.591 1.591s-1.591-0.71231-1.591-1.591 0.71231-1.591 1.591-1.591 1.591 0.71231 1.591 1.591z"/>
  <path transform="translate(114.84 -6.4009)" d="m388.38 965.39c0 0.87868-0.71231 1.591-1.591 1.591s-1.591-0.71231-1.591-1.591 0.71231-1.591 1.591-1.591 1.591 0.71231 1.591 1.591z"/>
  <path transform="translate(128.96 -7.7759)" d="m388.38 965.39c0 0.87868-0.71231 1.591-1.591 1.591s-1.591-0.71231-1.591-1.591 0.71231-1.591 1.591-1.591 1.591 0.71231 1.591 1.591z"/>
  <path transform="translate(129.21 3.3491)" d="m388.38 965.39c0 0.87868-0.71231 1.591-1.591 1.591s-1.591-0.71231-1.591-1.591 0.71231-1.591 1.591-1.591 1.591 0.71231 1.591 1.591z"/>
  <path transform="translate(114.96 4.9741)" d="m388.38 965.39c0 0.87868-0.71231 1.591-1.591 1.591s-1.591-0.71231-1.591-1.591 0.71231-1.591 1.591-1.591 1.591 0.71231 1.591 1.591z"/>
  <path transform="translate(101.09 6.3491)" d="m388.38 965.39c0 0.87868-0.71231 1.591-1.591 1.591s-1.591-0.71231-1.591-1.591 0.71231-1.591 1.591-1.591 1.591 0.71231 1.591 1.591z"/>
  <path transform="translate(86.713 6.9741)" d="m388.38 965.39c0 0.87868-0.71231 1.591-1.591 1.591s-1.591-0.71231-1.591-1.591 0.71231-1.591 1.591-1.591 1.591 0.71231 1.591 1.591z"/>
  <path transform="translate(72.213 8.0991)" d="m388.38 965.39c0 0.87868-0.71231 1.591-1.591 1.591s-1.591-0.71231-1.591-1.591 0.71231-1.591 1.591-1.591 1.591 0.71231 1.591 1.591z"/>
  <path transform="translate(57.338 8.8491)" d="m388.38 965.39c0 0.87868-0.71231 1.591-1.591 1.591s-1.591-0.71231-1.591-1.591 0.71231-1.591 1.591-1.591 1.591 0.71231 1.591 1.591z"/>
  <path transform="translate(42.963 9.5991)" d="m388.38 965.39c0 0.87868-0.71231 1.591-1.591 1.591s-1.591-0.71231-1.591-1.591 0.71231-1.591 1.591-1.591 1.591 0.71231 1.591 1.591z"/>
  <path transform="translate(28.088 10.349)" d="m388.38 965.39c0 0.87868-0.71231 1.591-1.591 1.591s-1.591-0.71231-1.591-1.591 0.71231-1.591 1.591-1.591 1.591 0.71231 1.591 1.591z"/>
  <path transform="translate(13.088 10.974)" d="m388.38 965.39c0 0.87868-0.71231 1.591-1.591 1.591s-1.591-0.71231-1.591-1.591 0.71231-1.591 1.591-1.591 1.591 0.71231 1.591 1.591z"/>
  <path transform="translate(-2.5374 11.474)" d="m388.38 965.39c0 0.87868-0.71231 1.591-1.591 1.591s-1.591-0.71231-1.591-1.591 0.71231-1.591 1.591-1.591 1.591 0.71231 1.591 1.591z"/>
  <path transform="matrix(3.3333 0 0 3.3333 -734.52 -2772.6)" d="m388.38 965.39c0 0.87868-0.71231 1.591-1.591 1.591s-1.591-0.71231-1.591-1.591 0.71231-1.591 1.591-1.591 1.591 0.71231 1.591 1.591z" fill="url(#j)"/>
  <path transform="translate(167.23 -520.08)" d="m388.38 965.39c0 0.87868-0.71231 1.591-1.591 1.591s-1.591-0.71231-1.591-1.591 0.71231-1.591 1.591-1.591 1.591 0.71231 1.591 1.591z" fill="#e6e6e6"/>
  <path transform="matrix(3.3333 0 0 3.3333 -734.21 -2746.5)" d="m388.38 965.39c0 0.87868-0.71231 1.591-1.591 1.591s-1.591-0.71231-1.591-1.591 0.71231-1.591 1.591-1.591 1.591 0.71231 1.591 1.591z" fill="url(#k)"/>
  <path transform="translate(167.14 -493.74)" d="m388.38 965.39c0 0.87868-0.71231 1.591-1.591 1.591s-1.591-0.71231-1.591-1.591 0.71231-1.591 1.591-1.591 1.591 0.71231 1.591 1.591z" fill="#e6e6e6"/>
  <path transform="matrix(5.5725 0 0 5.7296 -1600.9 -5034.3)" d="m388.38 965.39c0 0.87868-0.71231 1.591-1.591 1.591s-1.591-0.71231-1.591-1.591 0.71231-1.591 1.591-1.591 1.591 0.71231 1.591 1.591z" fill="url(#i)" stroke="#373a3a" stroke-width=".05309"/>
  <path d="m551.62 494.36 0.8125-0.59375 1.5938 2.375-1.0312 0.71875-1.375-2.5z" fill="url(#r)"/>
  <path d="m556.02 493 0.59375-0.53125c6.5224 3.3646-1.8214 15.818-6.6875 5.25l-0.21875-0.75 0.70513-0.4412c2.9066 9.6848 11.714 1.0161 5.6074-3.5276z" fill="url(#s)"/>
  <path transform="matrix(.9405 0 0 .9405 58.417 -331.98)" d="m388.38 965.39c0 0.87868-0.71231 1.591-1.591 1.591s-1.591-0.71231-1.591-1.591 0.71231-1.591 1.591-1.591 1.591 0.71231 1.591 1.591z"/>
  <path transform="matrix(.9405 0 0 .9405 72.336 -332.35)" d="m388.38 965.39c0 0.87868-0.71231 1.591-1.591 1.591s-1.591-0.71231-1.591-1.591 0.71231-1.591 1.591-1.591 1.591 0.71231 1.591 1.591z"/>
  <path transform="matrix(.9405 0 0 .9405 86.39 -332.08)" d="m388.38 965.39c0 0.87868-0.71231 1.591-1.591 1.591s-1.591-0.71231-1.591-1.591 0.71231-1.591 1.591-1.591 1.591 0.71231 1.591 1.591z"/>
  <path transform="matrix(.9405 0 0 .9405 100.8 -332.35)" d="m388.38 965.39c0 0.87868-0.71231 1.591-1.591 1.591s-1.591-0.71231-1.591-1.591 0.71231-1.591 1.591-1.591 1.591 0.71231 1.591 1.591z"/>
  <path transform="matrix(.9405 0 0 .9405 114.85 -332.7)" d="m388.38 965.39c0 0.87868-0.71231 1.591-1.591 1.591s-1.591-0.71231-1.591-1.591 0.71231-1.591 1.591-1.591 1.591 0.71231 1.591 1.591z"/>
  <path transform="rotate(.98411)" d="m389 96.579h123.92a7.6014 7.6014 0 0 1 7.6014 7.6014 7.6014 7.6014 0 0 1 -7.6014 7.6014h-123.92a7.6014 7.6014 0 0 1 -7.6014 -7.6014 7.6014 7.6014 0 0 1 7.6014 -7.6014" fill="#191919"/>
  <path d="m379.54 110.32 40.748 0.597 0.17847-5.2008 1.1484-0.0419-0.0861 5.1826 55.153 1.5073 0.26378-5.5178 1.684 0.057-0.17737 5.3638 39.858 1.2347-0.35355 1.2374-39.508-0.84684-0.13132 5.1078-1.5495-9e-3 0.0908-5.2296-55.418-1.3177-0.12895 6.2367-1.1061 0.0227 0.17318-6.2076-40.838-0.93881v-1.2374z" fill="#626a6c"/>
  <g transform="translate(.09298 42.78)">
   <path transform="rotate(.98411)" d="m389 96.579h123.92a7.6014 7.6014 0 0 1 7.6014 7.6014 7.6014 7.6014 0 0 1 -7.6014 7.6014h-123.92a7.6014 7.6014 0 0 1 -7.6014 -7.6014 7.6014 7.6014 0 0 1 7.6014 -7.6014" fill="#191919"/>
   <path d="m379.54 110.32 40.748 0.597 0.17847-5.2008 1.1484-0.0419-0.0861 5.1826 55.153 1.5073 0.26378-5.5178 1.684 0.057-0.17737 5.3638 39.858 1.2347-0.35355 1.2374-39.508-0.84684-0.13132 5.1078-1.5495-9e-3 0.0908-5.2296-55.418-1.3177-0.12895 6.2367-1.1061 0.0227 0.17318-6.2076-40.838-0.93881v-1.2374z" fill="#626a6c"/>
  </g>
  <g transform="matrix(1 0 0 .9082 -.26058 95.391)">
   <path transform="rotate(.98411)" d="m389 96.579h123.92a7.6014 7.6014 0 0 1 7.6014 7.6014 7.6014 7.6014 0 0 1 -7.6014 7.6014h-123.92a7.6014 7.6014 0 0 1 -7.6014 -7.6014 7.6014 7.6014 0 0 1 7.6014 -7.6014" fill="#191919"/>
   <path d="m379.54 110.32 40.748 0.597 0.17847-5.2008 1.1484-0.0419-0.0861 5.1826 55.153 1.5073 0.26378-5.5178 1.684 0.057-0.17737 5.3638 39.858 1.2347-0.35355 1.2374-39.508-0.84684-0.13132 5.1078-1.5495-9e-3 0.0908-5.2296-55.418-1.3177-0.12895 6.2367-1.1061 0.0227 0.17318-6.2076-40.838-0.93881v-1.2374z" fill="#626a6c"/>
  </g>
  <g transform="matrix(1 0 0 .9082 .09298 137.82)">
   <path transform="rotate(.98411)" d="m389 96.579h123.92a7.6014 7.6014 0 0 1 7.6014 7.6014 7.6014 7.6014 0 0 1 -7.6014 7.6014h-123.92a7.6014 7.6014 0 0 1 -7.6014 -7.6014 7.6014 7.6014 0 0 1 7.6014 -7.6014" fill="#191919"/>
   <path d="m379.54 110.32 40.748 0.597 0.17847-5.2008 1.1484-0.0419-0.0861 5.1826 55.153 1.5073 0.26378-5.5178 1.684 0.057-0.17737 5.3638 39.858 1.2347-0.35355 1.2374-39.508-0.84684-0.13132 5.1078-1.5495-9e-3 0.0908-5.2296-55.418-1.3177-0.12895 6.2367-1.1061 0.0227 0.17318-6.2076-40.838-0.93881v-1.2374z" fill="#626a6c"/>
  </g>
  <g transform="matrix(.99997 -.00734 .0075 .97842 -.20346 175.59)">
   <path transform="rotate(.98411)" d="m389 96.579h123.92a7.6014 7.6014 0 0 1 7.6014 7.6014 7.6014 7.6014 0 0 1 -7.6014 7.6014h-123.92a7.6014 7.6014 0 0 1 -7.6014 -7.6014 7.6014 7.6014 0 0 1 7.6014 -7.6014" fill="#191919"/>
   <path d="m379.54 110.32 40.748 0.597 0.17847-5.2008 1.1484-0.0419-0.0861 5.1826 55.153 1.5073 0.26378-5.5178 1.684 0.057-0.17737 5.3638 39.858 1.2347-0.35355 1.2374-39.508-0.84684-0.13132 5.1078-1.5495-9e-3 0.0908-5.2296-55.418-1.3177-0.12895 6.2367-1.1061 0.0227 0.17318-6.2076-40.838-0.93881v-1.2374z" fill="#626a6c"/>
  </g>
  <g transform="matrix(.99997 -.00734 .0075 .97842 -.37835 217.49)">
   <path transform="rotate(.98411)" d="m389 96.579h123.92a7.6014 7.6014 0 0 1 7.6014 7.6014 7.6014 7.6014 0 0 1 -7.6014 7.6014h-123.92a7.6014 7.6014 0 0 1 -7.6014 -7.6014 7.6014 7.6014 0 0 1 7.6014 -7.6014" fill="#191919"/>
   <path d="m379.54 110.32 40.748 0.597 0.17847-5.2008 1.1484-0.0419-0.0861 5.1826 55.153 1.5073 0.26378-5.5178 1.684 0.057-0.17737 5.3638 39.858 1.2347-0.35355 1.2374-39.508-0.84684-0.13132 5.1078-1.5495-9e-3 0.0908-5.2296-55.418-1.3177-0.12895 6.2367-1.1061 0.0227 0.17318-6.2076-40.838-0.93881v-1.2374z" fill="#626a6c"/>
  </g>
  <g transform="matrix(.99985 -.01704 .01699 .9783 -2.2714 264.46)">
   <path transform="rotate(.98411)" d="m389 96.579h123.92a7.6014 7.6014 0 0 1 7.6014 7.6014 7.6014 7.6014 0 0 1 -7.6014 7.6014h-123.92a7.6014 7.6014 0 0 1 -7.6014 -7.6014 7.6014 7.6014 0 0 1 7.6014 -7.6014" fill="#191919"/>
   <path d="m379.54 110.32 40.748 0.597 0.17847-5.2008 1.1484-0.0419-0.0861 5.1826 55.153 1.5073 0.26378-5.5178 1.684 0.057-0.17737 5.3638 39.858 1.2347-0.35355 1.2374-39.508-0.84684-0.13132 5.1078-1.5495-9e-3 0.0908-5.2296-55.418-1.3177-0.12895 6.2367-1.1061 0.0227 0.17318-6.2076-40.838-0.93881v-1.2374z" fill="#626a6c"/>
  </g>
  <g transform="matrix(.99985 -.01724 .01699 .9899 -1.9158 304.89)">
   <path transform="rotate(.98411)" d="m389 96.579h123.92a7.6014 7.6014 0 0 1 7.6014 7.6014 7.6014 7.6014 0 0 1 -7.6014 7.6014h-123.92a7.6014 7.6014 0 0 1 -7.6014 -7.6014 7.6014 7.6014 0 0 1 7.6014 -7.6014" fill="#191919"/>
   <path d="m379.54 110.32 40.748 0.597 0.17847-5.2008 1.1484-0.0419-0.0861 5.1826 55.153 1.5073 0.26378-5.5178 1.684 0.057-0.17737 5.3638 39.858 1.2347-0.35355 1.2374-39.508-0.84684-0.13132 5.1078-1.5495-9e-3 0.0908-5.2296-55.418-1.3177-0.12895 6.2367-1.1061 0.0227 0.17318-6.2076-40.838-0.93881v-1.2374z" fill="#626a6c"/>
  </g>
  <g transform="matrix(.99985 -.01542 .01699 .88547 -1.9158 357.12)">
   <path transform="rotate(.98411)" d="m389 96.579h123.92a7.6014 7.6014 0 0 1 7.6014 7.6014 7.6014 7.6014 0 0 1 -7.6014 7.6014h-123.92a7.6014 7.6014 0 0 1 -7.6014 -7.6014 7.6014 7.6014 0 0 1 7.6014 -7.6014" fill="#191919"/>
   <path d="m379.54 110.32 40.748 0.597 0.17847-5.2008 1.1484-0.0419-0.0861 5.1826 55.153 1.5073 0.26378-5.5178 1.684 0.057-0.17737 5.3638 39.858 1.2347-0.35355 1.2374-39.508-0.84684-0.13132 5.1078-1.5495-9e-3 0.0908-5.2296-55.418-1.3177-0.12895 6.2367-1.1061 0.0227 0.17318-6.2076-40.838-0.93881v-1.2374z" fill="#626a6c"/>
  </g>
  <g transform="matrix(.99977 -.01991 .02096 .88539 -1.971 400.78)">
   <path transform="rotate(.98411)" d="m389 96.579h123.92a7.6014 7.6014 0 0 1 7.6014 7.6014 7.6014 7.6014 0 0 1 -7.6014 7.6014h-123.92a7.6014 7.6014 0 0 1 -7.6014 -7.6014 7.6014 7.6014 0 0 1 7.6014 -7.6014" fill="#191919"/>
   <path d="m379.54 110.32 40.748 0.597 0.17847-5.2008 1.1484-0.0419-0.0861 5.1826 55.153 1.5073 0.26378-5.5178 1.684 0.057-0.17737 5.3638 39.858 1.2347-0.35355 1.2374-39.508-0.84684-0.13132 5.1078-1.5495-9e-3 0.0908-5.2296-55.418-1.3177-0.12895 6.2367-1.1061 0.0227 0.17318-6.2076-40.838-0.93881v-1.2374z" fill="#626a6c"/>
  </g>
  <g transform="matrix(.99949 -.03108 .03086 .8851 -2.2425 524.44)">
   <path transform="rotate(.98411)" d="m389 96.579h123.92a7.6014 7.6014 0 0 1 7.6014 7.6014 7.6014 7.6014 0 0 1 -7.6014 7.6014h-123.92a7.6014 7.6014 0 0 1 -7.6014 -7.6014 7.6014 7.6014 0 0 1 7.6014 -7.6014" fill="#191919"/>
   <path d="m379.54 110.32 40.748 0.597 0.17847-5.2008 1.1484-0.0419-0.0861 5.1826 55.153 1.5073 0.26378-5.5178 1.684 0.057-0.17737 5.3638 39.858 1.2347-0.35355 1.2374-39.508-0.84684-0.13132 5.1078-1.5495-9e-3 0.0908-5.2296-55.418-1.3177-0.12895 6.2367-1.1061 0.0227 0.17318-6.2076-40.838-0.93881v-1.2374z" fill="#626a6c"/>
  </g>
  <g transform="matrix(.99949 -.03108 .03086 .8851 -3.1248 565.1)">
   <path transform="rotate(.98411)" d="m389 96.579h123.92a7.6014 7.6014 0 0 1 7.6014 7.6014 7.6014 7.6014 0 0 1 -7.6014 7.6014h-123.92a7.6014 7.6014 0 0 1 -7.6014 -7.6014 7.6014 7.6014 0 0 1 7.6014 -7.6014" fill="#191919"/>
   <path d="m379.54 110.32 40.748 0.597 0.17847-5.2008 1.1484-0.0419-0.0861 5.1826 55.153 1.5073 0.26378-5.5178 1.684 0.057-0.17737 5.3638 39.858 1.2347-0.35355 1.2374-39.508-0.84684-0.13132 5.1078-1.5495-9e-3 0.0908-5.2296-55.418-1.3177-0.12895 6.2367-1.1061 0.0227 0.17318-6.2076-40.838-0.93881v-1.2374z" fill="#626a6c"/>
  </g>
  <g transform="matrix(.99931 -.03627 .03546 .88492 -3.384 609.35)">
   <path transform="rotate(.98411)" d="m389 96.579h123.92a7.6014 7.6014 0 0 1 7.6014 7.6014 7.6014 7.6014 0 0 1 -7.6014 7.6014h-123.92a7.6014 7.6014 0 0 1 -7.6014 -7.6014 7.6014 7.6014 0 0 1 7.6014 -7.6014" fill="#191919"/>
   <path d="m379.54 110.32 40.748 0.597 0.17847-5.2008 1.1484-0.0419-0.0861 5.1826 55.153 1.5073 0.26378-5.5178 1.684 0.057-0.17737 5.3638 39.858 1.2347-0.35355 1.2374-39.508-0.84684-0.13132 5.1078-1.5495-9e-3 0.0908-5.2296-55.418-1.3177-0.12895 6.2367-1.1061 0.0227 0.17318-6.2076-40.838-0.93881v-1.2374z" fill="#626a6c"/>
  </g>
  <g transform="matrix(.99903 -.04352 .04187 .88464 -3.7946 655.24)">
   <path transform="rotate(.98411)" d="m389 96.579h123.92a7.6014 7.6014 0 0 1 7.6014 7.6014 7.6014 7.6014 0 0 1 -7.6014 7.6014h-123.92a7.6014 7.6014 0 0 1 -7.6014 -7.6014 7.6014 7.6014 0 0 1 7.6014 -7.6014" fill="#191919"/>
   <path d="m379.54 110.32 40.748 0.597 0.17847-5.2008 1.1484-0.0419-0.0861 5.1826 55.153 1.5073 0.26378-5.5178 1.684 0.057-0.17737 5.3638 39.858 1.2347-0.35355 1.2374-39.508-0.84684-0.13132 5.1078-1.5495-9e-3 0.0908-5.2296-55.418-1.3177-0.12895 6.2367-1.1061 0.0227 0.17318-6.2076-40.838-0.93881v-1.2374z" fill="#626a6c"/>
  </g>
  <g transform="matrix(.99903 -.04352 .04187 .88464 -2.7332 694.66)">
   <path transform="rotate(.98411)" d="m389 96.579h123.92a7.6014 7.6014 0 0 1 7.6014 7.6014 7.6014 7.6014 0 0 1 -7.6014 7.6014h-123.92a7.6014 7.6014 0 0 1 -7.6014 -7.6014 7.6014 7.6014 0 0 1 7.6014 -7.6014" fill="#191919"/>
   <path d="m379.54 110.32 40.748 0.597 0.17847-5.2008 1.1484-0.0419-0.0861 5.1826 55.153 1.5073 0.26378-5.5178 1.684 0.057-0.17737 5.3638 39.858 1.2347-0.35355 1.2374-39.508-0.84684-0.13132 5.1078-1.5495-9e-3 0.0908-5.2296-55.418-1.3177-0.12895 6.2367-1.1061 0.0227 0.17318-6.2076-40.838-0.93881v-1.2374z" fill="#626a6c"/>
  </g>
  <g transform="matrix(.99903 -.04352 .04187 .88464 -3.6171 736.73)">
   <path transform="rotate(.98411)" d="m389 96.579h123.92a7.6014 7.6014 0 0 1 7.6014 7.6014 7.6014 7.6014 0 0 1 -7.6014 7.6014h-123.92a7.6014 7.6014 0 0 1 -7.6014 -7.6014 7.6014 7.6014 0 0 1 7.6014 -7.6014" fill="#191919"/>
   <path d="m379.54 110.32 40.748 0.597 0.17847-5.2008 1.1484-0.0419-0.0861 5.1826 55.153 1.5073 0.26378-5.5178 1.684 0.057-0.17737 5.3638 39.858 1.2347-0.35355 1.2374-39.508-0.84684-0.13132 5.1078-1.5495-9e-3 0.0908-5.2296-55.418-1.3177-0.12895 6.2367-1.1061 0.0227 0.17318-6.2076-40.838-0.93881v-1.2374z" fill="#626a6c"/>
  </g>
  <g transform="matrix(.99859 -.05253 .04985 .88423 -3.6084 783.07)">
   <path transform="rotate(.98411)" d="m389 96.579h123.92a7.6014 7.6014 0 0 1 7.6014 7.6014 7.6014 7.6014 0 0 1 -7.6014 7.6014h-123.92a7.6014 7.6014 0 0 1 -7.6014 -7.6014 7.6014 7.6014 0 0 1 7.6014 -7.6014" fill="#191919"/>
   <path d="m379.54 110.32 40.748 0.597 0.17847-5.2008 1.1484-0.0419-0.0861 5.1826 55.153 1.5073 0.26378-5.5178 1.684 0.057-0.17737 5.3638 39.858 1.2347-0.35355 1.2374-39.508-0.84684-0.13132 5.1078-1.5495-9e-3 0.0908-5.2296-55.418-1.3177-0.12895 6.2367-1.1061 0.0227 0.17318-6.2076-40.838-0.93881v-1.2374z" fill="#626a6c"/>
  </g>
  <g transform="matrix(.99859 -.05253 .04985 .88423 -4.6684 823.56)">
   <path transform="rotate(.98411)" d="m389 96.579h123.92a7.6014 7.6014 0 0 1 7.6014 7.6014 7.6014 7.6014 0 0 1 -7.6014 7.6014h-123.92a7.6014 7.6014 0 0 1 -7.6014 -7.6014 7.6014 7.6014 0 0 1 7.6014 -7.6014" fill="#191919"/>
   <path d="m379.54 110.32 40.748 0.597 0.17847-5.2008 1.1484-0.0419-0.0861 5.1826 55.153 1.5073 0.26378-5.5178 1.684 0.057-0.17737 5.3638 39.858 1.2347-0.35355 1.2374-39.508-0.84684-0.13132 5.1078-1.5495-9e-3 0.0908-5.2296-55.418-1.3177-0.12895 6.2367-1.1061 0.0227 0.17318-6.2076-40.838-0.93881v-1.2374z" fill="#626a6c"/>
  </g>
  <g transform="matrix(.99859 -.05253 .04985 .88423 -3.9613 865.81)">
   <path transform="rotate(.98411)" d="m389 96.579h123.92a7.6014 7.6014 0 0 1 7.6014 7.6014 7.6014 7.6014 0 0 1 -7.6014 7.6014h-123.92a7.6014 7.6014 0 0 1 -7.6014 -7.6014 7.6014 7.6014 0 0 1 7.6014 -7.6014" fill="#191919"/>
   <path d="m379.54 110.32 40.748 0.597 0.17847-5.2008 1.1484-0.0419-0.0861 5.1826 55.153 1.5073 0.26378-5.5178 1.684 0.057-0.17737 5.3638 39.858 1.2347-0.35355 1.2374-39.508-0.84684-0.13132 5.1078-1.5495-9e-3 0.0908-5.2296-55.418-1.3177-0.12895 6.2367-1.1061 0.0227 0.17318-6.2076-40.838-0.93881v-1.2374z" fill="#626a6c"/>
  </g>
  <path d="m538.9 481.86 0.13259 3.9554 6.0988-0.17677v-4.2426l-6.2314 0.46404z" fill="none" stroke="#333"/>
  <path d="m545.09 481.33c1.7445-2.2034 3.4041-2.341 4.9718-0.24306" fill="none" stroke="#333"/>
  <path d="m564.91 481.24 0.1875 3.9688 5.8438-0.125-0.375-3.9688-5.6562 0.125z" fill="none" stroke="#333"/>
  <path d="m564.81 481.46c1.6399-3.4263 3.6313-3.2476 5.9375-0.34375" fill="none" stroke="#333"/>
  <path d="m551.86 459 0.1875 3.9688c1.7871 0.92335 3.7234 0.95116 5.8438-0.125l-0.10983-4.0129-5.9214 0.16919z" fill="none" stroke="#333"/>
  <path d="m551.93 459.04-0.0777-0.25179c2.1242-4.6308 6.2651-1.0935 5.8223 0.0826l-5.7446 0.16919z" fill="none" stroke="#333"/>
  <path d="m554.44 435.79 0.0442 1.7236h1.0606l0.0221-1.6352c0.71329-1.1401 1.8558-2.0777 1.6352-3.7123-9e-3 -1.1486-0.10239-2.7424-2.5412-2.718-0.89768 0.21273-1.7456 0.55247-2.1213 2.0992-0.2554 2.2644 0.83551 3.2411 1.9004 4.2426z" fill="none" stroke="#322f2f"/>
  <path d="m553 434.26-1.0386 0.57452" fill="none" stroke="#333"/>
  <path d="m552.47 432.19-1.1049-0.0663" fill="none" stroke="#333"/>
  <path d="m553.29 430.31-1.0607-1.0828" fill="none" stroke="#333"/>
  <path d="m554.97 429.42 0.0221-1.1712" fill="none" stroke="#333"/>
  <path d="m556.58 430.06 1.127-1.0607" fill="none" stroke="#333"/>
  <path d="m557.29 432.12 1.2816-0.0442" fill="none" stroke="#333"/>
  <path d="m556.85 434.24 1.127 0.90598" fill="none" stroke="#333"/>
  <path d="m551.88 282.92 0.0625 9.625c1.3988 0.14368 2.9829 0.0144 4.3998 0.41155 3.0143 0.84494 5.9333 2.3097 9.3502 1.4634 3.1006-2.1352 3.566-4.6758 4.625-7.125l8.4375-0.3125c2.2888-0.0833 1.814-3.9167-0.3125-3.875l-8.125 0.0625c-3.7939-5.3822-8.7154-3.9992-14-0.4375l-4.4375 0.1875z" fill="none" stroke="#353131"/>
  <path d="m570.25 283.17-3.875 0.0625" fill="none" stroke="#353131"/>
  <path d="m135.75 111.52 149.28-55.682 4.1154 912.19-149.34-128.94-4.0529-727.57z" fill="url(#o)"/>
  <path d="m284.98 35.763 1.0344-0.34375 4.5534 935.55-1.6931-1.4064-3.8946-933.8z"/>
  <path d="m135.78 110.27 149.33-56.12 0.0442 1.6478-149.38 55.933v-1.4607z"/>
  <g transform="translate(657.61 74.069)">
   <path d="m-523.6 403.44c1.4293-31.308 13.345-28.742 17.75-17.219 18.953 13.142 21.537 101.03-1.125 107.95-1.1168 2.1865-10.036-3.9483-10.801-3.4716-3.602 2.2448-3.7828-12.444-5.0741-24.996-1.8378-31.672-1.2094-56.802-0.75-62.259z" fill="url(#l)"/>
   <path d="m-514.24 378.67 2.2981-0.88389c42.143 35.018 18.667 150.37-7.7782 112.25l1.7678-1.0607c1.8823 1.8743 3.6669 3.1922 5.3519 4.0099 26.323 12.773 28.332-96.547-1.6396-114.32z" fill="#1d1616"/>
   <path d="m-522.62 414.86c1.4293-21.749 5.2203-19.88 9.625-11.875 7.3316 25.021 8.9672 48.763 0 70.125-6.3762 8.6716-7.3095-4.4286-8.875-15-1.8173-21.731-0.73347-29.923-0.75-43.25z" fill="url(#m)"/>
   <path d="m-506.82 421.09c4.0689 35.427-1.9457 52.142-6.7324 56.699-4.5867 4.3666-8.5917 0.52973-7.9019-19.419 2.3359 14.487 3.6628 18.507 5.3631 17.969 5.449-1.7264 10.9-37.964 6.137-58.755-2.6906-11.111-3.4793-12.579-6.0311-17.016-3.1872-5.4172-4.9797 4.4438-6.5678 16.456 0.40063-41.699 11.233-16.831 15.733 4.0659z" fill="#1d1616"/>
   <path transform="matrix(.99136 0 0 1.3368 -6.0112 -157.67)" d="m-497.01 467.45c0 3.3439-1.9589 6.0546-4.3752 6.0546s-4.3752-2.7107-4.3752-6.0546 1.9589-6.0546 4.3752-6.0546 4.3752 2.7107 4.3752 6.0546z" fill="url(#n)"/>
   <path transform="matrix(.53903 0 0 1.0684 -234.66 -32.304)" d="m-497.01 467.45c0 3.3439-1.9589 6.0546-4.3752 6.0546s-4.3752-2.7107-4.3752-6.0546 1.9589-6.0546 4.3752-6.0546 4.3752 2.7107 4.3752 6.0546z" fill="url(#h)" stroke="#afa5a5" stroke-width=".5"/>
   <path d="m-505.31 464.61 0.5 3.375" fill="none" stroke="#7a7474" stroke-width=".5"/>
   <path d="m-506.12 469.17c1.0408 2.429 2.3392 2.6827 2.75-2" fill="none" stroke="#7a7474" stroke-width=".3"/>
  </g>
  <g transform="translate(-5777.7 -39.071)" filter="url(#aj)">
   <g transform="translate(6585.3 37.477)">
    <path d="m-633.21 475.54 23.865 6.364c1.0323 36.636 1.0296 73.79 0.17677 111.37l-23.688-10.076c-0.46425-36.059-0.81893-72.063-0.35355-107.66z" fill="#0a1920"/>
    <path d="m-632.9375,482.3125-.21875.96875 22.625,5.125 .21875-.96875-22.625-5.125z" fill="#728188"/>
    <path d="m-632.72 488.16-0.28125 0.9375 13.25 4.25 0.3125-0.96875-13.281-4.2188z" fill="#728188"/>
    <path d="m-633.0625,494.25-.3125.9375 15.125,5.125 .3125-.9375-15.125-5.125z" fill="#728188"/>
    <path d="m-612.53125,493.4375-.1875.96875 3.09375.53125 .1875-.96875-3.09375-.53125z" fill="#728188"/>
    <path d="m-633 501.41-0.25 0.96875 16.781 4.75 0.28125-0.96875-16.812-4.75z" fill="#728188"/>
    <path d="m-632.86 508.51h0.0884" fill="none" stroke="#000"/>
    <path d="m-632.69 507.69-0.34375 0.9375 17.5 5.8438 0.34375-0.96875-17.5-5.8125z" fill="#728188"/>
    <path d="m-633 514.41-0.25 0.9375 17.75 5.125 0.28125-0.9375-17.781-5.125z" fill="#728188"/>
    <path d="m-633.06 520.84-0.3125 0.96875 18.656 5.75 0.3125-0.96875-18.656-5.75z" fill="#728188"/>
    <path d="m-633.22 527.03-0.34375 0.96875 18.938 6.4375 0.3125-0.9375-18.906-6.4688z" fill="#728188"/>
    <path d="m-633.16 533.66-0.3125 0.96875 18.406 6.1875 0.3125-0.96875-18.406-6.1875z" fill="#728188"/>
    <path d="m-632.69 539.94-0.34375 0.9375 17.844 6.2812 0.34375-0.9375-17.844-6.2812z" fill="#728188"/>
    <path d="m-632.44 546.84-0.3125 0.9375 17.5 6.1875 0.3125-0.9375-17.5-6.1875z" fill="#728188"/>
    <path d="m-632.78 552.69-0.34375 0.9375 17.25 6.1875 0.34375-0.9375-17.25-6.1875z" fill="#728188"/>
    <path d="m-632.78 558.88-0.34375 0.9375 16.531 6.3438 0.34375-0.9375-16.531-6.3438z" fill="#728188"/>
    <path d="m-632.41 565.16-0.375 0.90625 14.312 5.75 0.375-0.9375-14.312-5.7188z" fill="#728188"/>
    <path d="m-632.41 570.91-0.40625 0.90625 13.438 6 0.40625-0.90625-13.438-6z" fill="#728188"/>
    <path d="m-631.75 577.44-0.4375 0.90625 10.688 5.0312 0.4375-0.90625-10.688-5.0312z" fill="#728188"/>
    <path d="m-613.9375,584.25-.375.90625 4.6875,1.9375 .375-.90625-4.6875-1.9375z" fill="#728188"/>
    <path d="m-611.69 578.34-0.4375 0.875 2.8125 1.4062 0.4375-0.875-2.8125-1.4062z" fill="#728188"/>
    <path transform="translate(-2.2097)" d="m-613.06156,483.93671c0,.78105-.35616,1.41421-.7955,1.41421s-.79549-.63316-.79549-1.41421 .35615-1.41422.79549-1.41422 .7955.63317.7955,1.41422z" fill="#f4ffff"/>
    <path transform="translate(-4.2427 -.7071)" d="m-613.06156,483.93671c0,.78105-.35616,1.41421-.7955,1.41421s-.79549-.63316-.79549-1.41421 .35615-1.41422.79549-1.41422 .7955.63317.7955,1.41422z" fill="#f4ffff"/>
    <path transform="matrix(1 0 0 .84375 -4.4194 80.256)" d="m-613.06156,483.93671c0,.78105-.35616,1.41421-.7955,1.41421s-.79549-.63316-.79549-1.41421 .35615-1.41422.79549-1.41422 .7955.63317.7955,1.41422z" fill="#f4ffff"/>
    <path transform="matrix(1 0 0 .875 -2.033 65.177)" d="m-613.06156,483.93671c0,.78105-.35616,1.41421-.7955,1.41421s-.79549-.63316-.79549-1.41421 .35615-1.41422.79549-1.41422 .7955.63317.7955,1.41422z" fill="#f4ffff"/>
    <path transform="matrix(1.1667 0 0 1.5625 100.06 -259.93)" d="m-613.06156,483.93671c0,.78105-.35616,1.41421-.7955,1.41421s-.79549-.63316-.79549-1.41421 .35615-1.41422.79549-1.41422 .7955.63317.7955,1.41422z" fill="#f4ffff"/>
    <path transform="matrix(.94444 0 0 1.3125 -39.097 -139.92)" d="m-613.06156,483.93671c0,.78105-.35616,1.41421-.7955,1.41421s-.79549-.63316-.79549-1.41421 .35615-1.41422.79549-1.41422 .7955.63317.7955,1.41422z" fill="#f4ffff"/>
    <path transform="matrix(1.1111 0 0 1.5938 66.173 -267.94)" d="m-613.06156,483.93671c0,.78105-.35616,1.41421-.7955,1.41421s-.79549-.63316-.79549-1.41421 .35615-1.41422.79549-1.41422 .7955.63317.7955,1.41422z" fill="#f4ffff"/>
    <path transform="matrix(.77778 0 0 .78125 -135.62 117.66)" d="m-613.06156,483.93671c0,.78105-.35616,1.41421-.7955,1.41421s-.79549-.63316-.79549-1.41421 .35615-1.41422.79549-1.41422 .7955.63317.7955,1.41422z" fill="#f4ffff"/>
    <path transform="matrix(1.0556 0 0 1.6875 36.269 -306.46)" d="m-613.06156,483.93671c0,.78105-.35616,1.41421-.7955,1.41421s-.79549-.63316-.79549-1.41421 .35615-1.41422.79549-1.41422 .7955.63317.7955,1.41422z" fill="#f4ffff"/>
    <path transform="matrix(1.1111 0 0 1.9375 71.212 -420.1)" d="m-613.06156,483.93671c0,.78105-.35616,1.41421-.7955,1.41421s-.79549-.63316-.79549-1.41421 .35615-1.41422.79549-1.41422 .7955.63317.7955,1.41422z" fill="#f4ffff"/>
    <path transform="matrix(1 0 0 1.3438 -.35357 -134.31)" d="m-613.06156,483.93671c0,.78105-.35616,1.41421-.7955,1.41421s-.79549-.63316-.79549-1.41421 .35615-1.41422.79549-1.41422 .7955.63317.7955,1.41422z" fill="#f4ffff"/>
    <path transform="matrix(1.1111 0 0 1.625 68.825 -262.86)" d="m-613.06156,483.93671c0,.78105-.35616,1.41421-.7955,1.41421s-.79549-.63316-.79549-1.41421 .35615-1.41422.79549-1.41422 .7955.63317.7955,1.41422z" fill="#f4ffff"/>
    <path transform="matrix(1 0 0 .84375 .70709 96.696)" d="m-613.06156,483.93671c0,.78105-.35616,1.41421-.7955,1.41421s-.79549-.63316-.79549-1.41421 .35615-1.41422.79549-1.41422 .7955.63317.7955,1.41422z" fill="#f4ffff"/>
    <path transform="matrix(1 0 0 .84375 -1.3258 102.79)" d="m-613.06156,483.93671c0,.78105-.35616,1.41421-.7955,1.41421s-.79549-.63316-.79549-1.41421 .35615-1.41422.79549-1.41422 .7955.63317.7955,1.41422z" fill="#f4ffff"/>
    <path transform="matrix(1.1778 -.49637 .41688 1.4023 -90.105 -453.39)" d="m-613.06156,483.93671c0,.78105-.35616,1.41421-.7955,1.41421s-.79549-.63316-.79549-1.41421 .35615-1.41422.79549-1.41422 .7955.63317.7955,1.41422z" fill="#f4ffff"/>
    <path transform="matrix(1.1667 0 0 1.6562 106.24 -264.24)" d="m-613.06156,483.93671c0,.78105-.35616,1.41421-.7955,1.41421s-.79549-.63316-.79549-1.41421 .35615-1.41422.79549-1.41422 .7955.63317.7955,1.41422z" fill="#f4ffff"/>
    <path transform="translate(2.74 61.165)" d="m-613.06156,483.93671c0,.78105-.35616,1.41421-.7955,1.41421s-.79549-.63316-.79549-1.41421 .35615-1.41422.79549-1.41422 .7955.63317.7955,1.41422z" fill="#f4ffff"/>
    <path transform="matrix(1.1667 0 0 1.4062 106.86 -130.53)" d="m-613.06156,483.93671c0,.78105-.35616,1.41421-.7955,1.41421s-.79549-.63316-.79549-1.41421 .35615-1.41422.79549-1.41422 .7955.63317.7955,1.41422z" fill="#f4ffff"/>
    <path transform="matrix(1.1667 0 0 .84375 106.86 117.2)" d="m-613.06156,483.93671c0,.78105-.35616,1.41421-.7955,1.41421s-.79549-.63316-.79549-1.41421 .35615-1.41422.79549-1.41422 .7955.63317.7955,1.41422z" fill="#f4ffff"/>
    <path transform="matrix(.88889 0 0 .6875 -63.787 189.77)" d="m-613.06156,483.93671c0,.78105-.35616,1.41421-.7955,1.41421s-.79549-.63316-.79549-1.41421 .35615-1.41422.79549-1.41422 .7955.63317.7955,1.41422z" fill="#f4ffff"/>
    <path transform="matrix(1.3889 0 0 1.8125 242.21 -320.01)" d="m-613.06156,483.93671c0,.78105-.35616,1.41421-.7955,1.41421s-.79549-.63316-.79549-1.41421 .35615-1.41422.79549-1.41422 .7955.63317.7955,1.41422z" fill="#f4ffff"/>
    <path transform="translate(1.149 67.705)" d="m-613.06156,483.93671c0,.78105-.35616,1.41421-.7955,1.41421s-.79549-.63316-.79549-1.41421 .35615-1.41422.79549-1.41422 .7955.63317.7955,1.41422z" fill="#f4ffff"/>
    <path transform="matrix(.94444 0 0 .5625 -33.971 282.7)" d="m-613.06156,483.93671c0,.78105-.35616,1.41421-.7955,1.41421s-.79549-.63316-.79549-1.41421 .35615-1.41422.79549-1.41422 .7955.63317.7955,1.41422z" fill="#f4ffff"/>
    <path transform="matrix(1.0556 0 0 1.375 33.263 -102.55)" d="m-613.06156,483.93671c0,.78105-.35616,1.41421-.7955,1.41421s-.79549-.63316-.79549-1.41421 .35615-1.41422.79549-1.41422 .7955.63317.7955,1.41422z" fill="#f4ffff"/>
    <path transform="matrix(.83333 0 0 .84375 -99.614 156.18)" d="m-613.06156,483.93671c0,.78105-.35616,1.41421-.7955,1.41421s-.79549-.63316-.79549-1.41421 .35615-1.41422.79549-1.41422 .7955.63317.7955,1.41422z" fill="#f4ffff"/>
    <path transform="matrix(1.2778 0 0 1.4688 169.32 -141.59)" d="m-613.06156,483.93671c0,.78105-.35616,1.41421-.7955,1.41421s-.79549-.63316-.79549-1.41421 .35615-1.41422.79549-1.41422 .7955.63317.7955,1.41422z" fill="#f4ffff"/>
    <path transform="translate(1.591 91.924)" d="m-613.06156,483.93671c0,.78105-.35616,1.41421-.7955,1.41421s-.79549-.63316-.79549-1.41421 .35615-1.41422.79549-1.41422 .7955.63317.7955,1.41422z" fill="#f4ffff"/>
    <path transform="matrix(.99423 -.10729 .10729 .99423 -56.88 27.088)" d="m-613.06156,483.93671c0,.78105-.35616,1.41421-.7955,1.41421s-.79549-.63316-.79549-1.41421 .35615-1.41422.79549-1.41422 .7955.63317.7955,1.41422z" fill="#f4ffff"/>
    <path transform="matrix(.97259 -.23251 .18891 .79023 -112.31 49.298)" d="m-613.06156,483.93671c0,.78105-.35616,1.41421-.7955,1.41421s-.79549-.63316-.79549-1.41421 .35615-1.41422.79549-1.41422 .7955.63317.7955,1.41422z" fill="#f4ffff"/>
    <path transform="translate(.97225 96.785)" d="m-613.06156,483.93671c0,.78105-.35616,1.41421-.7955,1.41421s-.79549-.63316-.79549-1.41421 .35615-1.41422.79549-1.41422 .7955.63317.7955,1.41422z" fill="#f4ffff"/>
    <path transform="matrix(1 0 0 1.25 -1.4142 -24.376)" d="m-613.06156,483.93671c0,.78105-.35616,1.41421-.7955,1.41421s-.79549-.63316-.79549-1.41421 .35615-1.41422.79549-1.41422 .7955.63317.7955,1.41422z" fill="#f4ffff"/>
    <path transform="matrix(.9778 -.25606 .20953 1.195 -118.81 -154.9)" d="m-613.06156,483.93671c0,.78105-.35616,1.41421-.7955,1.41421s-.79549-.63316-.79549-1.41421 .35615-1.41422.79549-1.41422 .7955.63317.7955,1.41422z" fill="#f4ffff"/>
    <path transform="matrix(.94444 0 0 .71875 -29.728 221.45)" d="m-613.06156,483.93671c0,.78105-.35616,1.41421-.7955,1.41421s-.79549-.63316-.79549-1.41421 .35615-1.41422.79549-1.41422 .7955.63317.7955,1.41422z" fill="#f4ffff"/>
    <path transform="matrix(.94444 0 0 .8125 -32.556 174.88)" d="m-613.06156,483.93671c0,.78105-.35616,1.41421-.7955,1.41421s-.79549-.63316-.79549-1.41421 .35615-1.41422.79549-1.41422 .7955.63317.7955,1.41422z" fill="#f4ffff"/>
    <path d="m-627.33 481.06-0.99246-0.15909-0.87281 100.49 0.99246 0.15908 0.87281-100.49z" fill="#728188"/>
    <path d="m-622.56 484.07-0.99246-0.15909-0.87281 100.49 0.99246 0.15908 0.87281-100.49z" fill="#728188"/>
    <path d="m-618.49 491.83-0.99246-0.14288-0.87281 90.251 0.99246 0.14288 0.87281-90.251z" fill="#728188"/>
    <path d="m-615.13 485.66-0.99246-0.15909-0.87281 100.49 0.99246 0.15908 0.87281-100.49z" fill="#728188"/>
   </g>
  </g>
  <g transform="translate(-5781.9 173.59)" filter="url(#ah)">
   <g transform="translate(6585.3 37.477)">
    <path d="m-633.21 475.54 23.865 6.364c1.0323 36.636 1.0296 73.79 0.17677 111.37l-23.688-10.076c-0.46425-36.059-0.81893-72.063-0.35355-107.66z" fill="#0a1920"/>
    <path d="m-632.9375,482.3125-.21875.96875 22.625,5.125 .21875-.96875-22.625-5.125z" fill="#728188"/>
    <path d="m-632.72 488.16-0.28125 0.9375 13.25 4.25 0.3125-0.96875-13.281-4.2188z" fill="#728188"/>
    <path d="m-633.0625,494.25-.3125.9375 15.125,5.125 .3125-.9375-15.125-5.125z" fill="#728188"/>
    <path d="m-612.53125,493.4375-.1875.96875 3.09375.53125 .1875-.96875-3.09375-.53125z" fill="#728188"/>
    <path d="m-633 501.41-0.25 0.96875 16.781 4.75 0.28125-0.96875-16.812-4.75z" fill="#728188"/>
    <path d="m-632.86 508.51h0.0884" fill="none" stroke="#000"/>
    <path d="m-632.69 507.69-0.34375 0.9375 17.5 5.8438 0.34375-0.96875-17.5-5.8125z" fill="#728188"/>
    <path d="m-633 514.41-0.25 0.9375 17.75 5.125 0.28125-0.9375-17.781-5.125z" fill="#728188"/>
    <path d="m-633.06 520.84-0.3125 0.96875 18.656 5.75 0.3125-0.96875-18.656-5.75z" fill="#728188"/>
    <path d="m-633.22 527.03-0.34375 0.96875 18.938 6.4375 0.3125-0.9375-18.906-6.4688z" fill="#728188"/>
    <path d="m-633.16 533.66-0.3125 0.96875 18.406 6.1875 0.3125-0.96875-18.406-6.1875z" fill="#728188"/>
    <path d="m-632.69 539.94-0.34375 0.9375 17.844 6.2812 0.34375-0.9375-17.844-6.2812z" fill="#728188"/>
    <path d="m-632.44 546.84-0.3125 0.9375 17.5 6.1875 0.3125-0.9375-17.5-6.1875z" fill="#728188"/>
    <path d="m-632.78 552.69-0.34375 0.9375 17.25 6.1875 0.34375-0.9375-17.25-6.1875z" fill="#728188"/>
    <path d="m-632.78 558.88-0.34375 0.9375 16.531 6.3438 0.34375-0.9375-16.531-6.3438z" fill="#728188"/>
    <path d="m-632.41 565.16-0.375 0.90625 14.312 5.75 0.375-0.9375-14.312-5.7188z" fill="#728188"/>
    <path d="m-632.41 570.91-0.40625 0.90625 13.438 6 0.40625-0.90625-13.438-6z" fill="#728188"/>
    <path d="m-631.75 577.44-0.4375 0.90625 10.688 5.0312 0.4375-0.90625-10.688-5.0312z" fill="#728188"/>
    <path d="m-613.9375,584.25-.375.90625 4.6875,1.9375 .375-.90625-4.6875-1.9375z" fill="#728188"/>
    <path d="m-611.69 578.34-0.4375 0.875 2.8125 1.4062 0.4375-0.875-2.8125-1.4062z" fill="#728188"/>
    <path transform="translate(-2.2097)" d="m-613.06156,483.93671c0,.78105-.35616,1.41421-.7955,1.41421s-.79549-.63316-.79549-1.41421 .35615-1.41422.79549-1.41422 .7955.63317.7955,1.41422z" fill="#f4ffff"/>
    <path transform="translate(-4.2427 -.7071)" d="m-613.06156,483.93671c0,.78105-.35616,1.41421-.7955,1.41421s-.79549-.63316-.79549-1.41421 .35615-1.41422.79549-1.41422 .7955.63317.7955,1.41422z" fill="#f4ffff"/>
    <path transform="matrix(1 0 0 .84375 -4.4194 80.256)" d="m-613.06156,483.93671c0,.78105-.35616,1.41421-.7955,1.41421s-.79549-.63316-.79549-1.41421 .35615-1.41422.79549-1.41422 .7955.63317.7955,1.41422z" fill="#f4ffff"/>
    <path transform="matrix(1 0 0 .875 -2.033 65.177)" d="m-613.06156,483.93671c0,.78105-.35616,1.41421-.7955,1.41421s-.79549-.63316-.79549-1.41421 .35615-1.41422.79549-1.41422 .7955.63317.7955,1.41422z" fill="#f4ffff"/>
    <path transform="matrix(1.1667 0 0 1.5625 100.06 -259.93)" d="m-613.06156,483.93671c0,.78105-.35616,1.41421-.7955,1.41421s-.79549-.63316-.79549-1.41421 .35615-1.41422.79549-1.41422 .7955.63317.7955,1.41422z" fill="#f4ffff"/>
    <path transform="matrix(.94444 0 0 1.3125 -39.097 -139.92)" d="m-613.06156,483.93671c0,.78105-.35616,1.41421-.7955,1.41421s-.79549-.63316-.79549-1.41421 .35615-1.41422.79549-1.41422 .7955.63317.7955,1.41422z" fill="#f4ffff"/>
    <path transform="matrix(1.1111 0 0 1.5938 66.173 -267.94)" d="m-613.06156,483.93671c0,.78105-.35616,1.41421-.7955,1.41421s-.79549-.63316-.79549-1.41421 .35615-1.41422.79549-1.41422 .7955.63317.7955,1.41422z" fill="#f4ffff"/>
    <path transform="matrix(.77778 0 0 .78125 -135.62 117.66)" d="m-613.06156,483.93671c0,.78105-.35616,1.41421-.7955,1.41421s-.79549-.63316-.79549-1.41421 .35615-1.41422.79549-1.41422 .7955.63317.7955,1.41422z" fill="#f4ffff"/>
    <path transform="matrix(1.0556 0 0 1.6875 36.269 -306.46)" d="m-613.06156,483.93671c0,.78105-.35616,1.41421-.7955,1.41421s-.79549-.63316-.79549-1.41421 .35615-1.41422.79549-1.41422 .7955.63317.7955,1.41422z" fill="#f4ffff"/>
    <path transform="matrix(1.1111 0 0 1.9375 71.212 -420.1)" d="m-613.06156,483.93671c0,.78105-.35616,1.41421-.7955,1.41421s-.79549-.63316-.79549-1.41421 .35615-1.41422.79549-1.41422 .7955.63317.7955,1.41422z" fill="#f4ffff"/>
    <path transform="matrix(1 0 0 1.3438 -.35357 -134.31)" d="m-613.06156,483.93671c0,.78105-.35616,1.41421-.7955,1.41421s-.79549-.63316-.79549-1.41421 .35615-1.41422.79549-1.41422 .7955.63317.7955,1.41422z" fill="#f4ffff"/>
    <path transform="matrix(1.1111 0 0 1.625 68.825 -262.86)" d="m-613.06156,483.93671c0,.78105-.35616,1.41421-.7955,1.41421s-.79549-.63316-.79549-1.41421 .35615-1.41422.79549-1.41422 .7955.63317.7955,1.41422z" fill="#f4ffff"/>
    <path transform="matrix(1 0 0 .84375 .70709 96.696)" d="m-613.06156,483.93671c0,.78105-.35616,1.41421-.7955,1.41421s-.79549-.63316-.79549-1.41421 .35615-1.41422.79549-1.41422 .7955.63317.7955,1.41422z" fill="#f4ffff"/>
    <path transform="matrix(1 0 0 .84375 -1.3258 102.79)" d="m-613.06156,483.93671c0,.78105-.35616,1.41421-.7955,1.41421s-.79549-.63316-.79549-1.41421 .35615-1.41422.79549-1.41422 .7955.63317.7955,1.41422z" fill="#f4ffff"/>
    <path transform="matrix(1.1778 -.49637 .41688 1.4023 -90.105 -453.39)" d="m-613.06156,483.93671c0,.78105-.35616,1.41421-.7955,1.41421s-.79549-.63316-.79549-1.41421 .35615-1.41422.79549-1.41422 .7955.63317.7955,1.41422z" fill="#f4ffff"/>
    <path transform="matrix(1.1667 0 0 1.6562 106.24 -264.24)" d="m-613.06156,483.93671c0,.78105-.35616,1.41421-.7955,1.41421s-.79549-.63316-.79549-1.41421 .35615-1.41422.79549-1.41422 .7955.63317.7955,1.41422z" fill="#f4ffff"/>
    <path transform="translate(2.74 61.165)" d="m-613.06156,483.93671c0,.78105-.35616,1.41421-.7955,1.41421s-.79549-.63316-.79549-1.41421 .35615-1.41422.79549-1.41422 .7955.63317.7955,1.41422z" fill="#f4ffff"/>
    <path transform="matrix(1.1667 0 0 1.4062 106.86 -130.53)" d="m-613.06156,483.93671c0,.78105-.35616,1.41421-.7955,1.41421s-.79549-.63316-.79549-1.41421 .35615-1.41422.79549-1.41422 .7955.63317.7955,1.41422z" fill="#f4ffff"/>
    <path transform="matrix(1.1667 0 0 .84375 106.86 117.2)" d="m-613.06156,483.93671c0,.78105-.35616,1.41421-.7955,1.41421s-.79549-.63316-.79549-1.41421 .35615-1.41422.79549-1.41422 .7955.63317.7955,1.41422z" fill="#f4ffff"/>
    <path transform="matrix(.88889 0 0 .6875 -63.787 189.77)" d="m-613.06156,483.93671c0,.78105-.35616,1.41421-.7955,1.41421s-.79549-.63316-.79549-1.41421 .35615-1.41422.79549-1.41422 .7955.63317.7955,1.41422z" fill="#f4ffff"/>
    <path transform="matrix(1.3889 0 0 1.8125 242.21 -320.01)" d="m-613.06156,483.93671c0,.78105-.35616,1.41421-.7955,1.41421s-.79549-.63316-.79549-1.41421 .35615-1.41422.79549-1.41422 .7955.63317.7955,1.41422z" fill="#f4ffff"/>
    <path transform="translate(1.149 67.705)" d="m-613.06156,483.93671c0,.78105-.35616,1.41421-.7955,1.41421s-.79549-.63316-.79549-1.41421 .35615-1.41422.79549-1.41422 .7955.63317.7955,1.41422z" fill="#f4ffff"/>
    <path transform="matrix(.94444 0 0 .5625 -33.971 282.7)" d="m-613.06156,483.93671c0,.78105-.35616,1.41421-.7955,1.41421s-.79549-.63316-.79549-1.41421 .35615-1.41422.79549-1.41422 .7955.63317.7955,1.41422z" fill="#f4ffff"/>
    <path transform="matrix(1.0556 0 0 1.375 33.263 -102.55)" d="m-613.06156,483.93671c0,.78105-.35616,1.41421-.7955,1.41421s-.79549-.63316-.79549-1.41421 .35615-1.41422.79549-1.41422 .7955.63317.7955,1.41422z" fill="#f4ffff"/>
    <path transform="matrix(.83333 0 0 .84375 -99.614 156.18)" d="m-613.06156,483.93671c0,.78105-.35616,1.41421-.7955,1.41421s-.79549-.63316-.79549-1.41421 .35615-1.41422.79549-1.41422 .7955.63317.7955,1.41422z" fill="#f4ffff"/>
    <path transform="matrix(1.2778 0 0 1.4688 169.32 -141.59)" d="m-613.06156,483.93671c0,.78105-.35616,1.41421-.7955,1.41421s-.79549-.63316-.79549-1.41421 .35615-1.41422.79549-1.41422 .7955.63317.7955,1.41422z" fill="#f4ffff"/>
    <path transform="translate(1.591 91.924)" d="m-613.06156,483.93671c0,.78105-.35616,1.41421-.7955,1.41421s-.79549-.63316-.79549-1.41421 .35615-1.41422.79549-1.41422 .7955.63317.7955,1.41422z" fill="#f4ffff"/>
    <path transform="matrix(.99423 -.10729 .10729 .99423 -56.88 27.088)" d="m-613.06156,483.93671c0,.78105-.35616,1.41421-.7955,1.41421s-.79549-.63316-.79549-1.41421 .35615-1.41422.79549-1.41422 .7955.63317.7955,1.41422z" fill="#f4ffff"/>
    <path transform="matrix(.97259 -.23251 .18891 .79023 -112.31 49.298)" d="m-613.06156,483.93671c0,.78105-.35616,1.41421-.7955,1.41421s-.79549-.63316-.79549-1.41421 .35615-1.41422.79549-1.41422 .7955.63317.7955,1.41422z" fill="#f4ffff"/>
    <path transform="translate(.97225 96.785)" d="m-613.06156,483.93671c0,.78105-.35616,1.41421-.7955,1.41421s-.79549-.63316-.79549-1.41421 .35615-1.41422.79549-1.41422 .7955.63317.7955,1.41422z" fill="#f4ffff"/>
    <path transform="matrix(1 0 0 1.25 -1.4142 -24.376)" d="m-613.06156,483.93671c0,.78105-.35616,1.41421-.7955,1.41421s-.79549-.63316-.79549-1.41421 .35615-1.41422.79549-1.41422 .7955.63317.7955,1.41422z" fill="#f4ffff"/>
    <path transform="matrix(.9778 -.25606 .20953 1.195 -118.81 -154.9)" d="m-613.06156,483.93671c0,.78105-.35616,1.41421-.7955,1.41421s-.79549-.63316-.79549-1.41421 .35615-1.41422.79549-1.41422 .7955.63317.7955,1.41422z" fill="#f4ffff"/>
    <path transform="matrix(.94444 0 0 .71875 -29.728 221.45)" d="m-613.06156,483.93671c0,.78105-.35616,1.41421-.7955,1.41421s-.79549-.63316-.79549-1.41421 .35615-1.41422.79549-1.41422 .7955.63317.7955,1.41422z" fill="#f4ffff"/>
    <path transform="matrix(.94444 0 0 .8125 -32.556 174.88)" d="m-613.06156,483.93671c0,.78105-.35616,1.41421-.7955,1.41421s-.79549-.63316-.79549-1.41421 .35615-1.41422.79549-1.41422 .7955.63317.7955,1.41422z" fill="#f4ffff"/>
    <path d="m-627.33 481.06-0.99246-0.15909-0.87281 100.49 0.99246 0.15908 0.87281-100.49z" fill="#728188"/>
    <path d="m-622.56 484.07-0.99246-0.15909-0.87281 100.49 0.99246 0.15908 0.87281-100.49z" fill="#728188"/>
    <path d="m-618.49 491.83-0.99246-0.14288-0.87281 90.251 0.99246 0.14288 0.87281-90.251z" fill="#728188"/>
    <path d="m-615.13 485.66-0.99246-0.15909-0.87281 100.49 0.99246 0.15908 0.87281-100.49z" fill="#728188"/>
   </g>
  </g>
  <g transform="matrix(1 0 0 1.0558 0 -27.552)" filter="url(#ai)" opacity=".69912">
   <g transform="matrix(1 0 0 1.1498 879.42 169.58)">
    <path d="m-633.21 475.54 23.865 6.364c1.0323 36.636 1.0296 73.79 0.17677 111.37l-23.688-10.076c-0.46425-36.059-0.81893-72.063-0.35355-107.66z" fill="#0a1920"/>
    <path d="m-632.9375,482.3125-.21875.96875 22.625,5.125 .21875-.96875-22.625-5.125z" fill="#728188"/>
    <path d="m-632.72 488.16-0.28125 0.9375 13.25 4.25 0.3125-0.96875-13.281-4.2188z" fill="#728188"/>
    <path d="m-633.0625,494.25-.3125.9375 15.125,5.125 .3125-.9375-15.125-5.125z" fill="#728188"/>
    <path d="m-612.53125,493.4375-.1875.96875 3.09375.53125 .1875-.96875-3.09375-.53125z" fill="#728188"/>
    <path d="m-633 501.41-0.25 0.96875 16.781 4.75 0.28125-0.96875-16.812-4.75z" fill="#728188"/>
    <path d="m-632.86 508.51h0.0884" fill="none" stroke="#000"/>
    <path d="m-632.69 507.69-0.34375 0.9375 17.5 5.8438 0.34375-0.96875-17.5-5.8125z" fill="#728188"/>
    <path d="m-633 514.41-0.25 0.9375 17.75 5.125 0.28125-0.9375-17.781-5.125z" fill="#728188"/>
    <path d="m-633.06 520.84-0.3125 0.96875 18.656 5.75 0.3125-0.96875-18.656-5.75z" fill="#728188"/>
    <path d="m-633.22 527.03-0.34375 0.96875 18.938 6.4375 0.3125-0.9375-18.906-6.4688z" fill="#728188"/>
    <path d="m-633.16 533.66-0.3125 0.96875 18.406 6.1875 0.3125-0.96875-18.406-6.1875z" fill="#728188"/>
    <path d="m-632.69 539.94-0.34375 0.9375 17.844 6.2812 0.34375-0.9375-17.844-6.2812z" fill="#728188"/>
    <path d="m-632.44 546.84-0.3125 0.9375 17.5 6.1875 0.3125-0.9375-17.5-6.1875z" fill="#728188"/>
    <path d="m-632.78 552.69-0.34375 0.9375 17.25 6.1875 0.34375-0.9375-17.25-6.1875z" fill="#728188"/>
    <path d="m-632.78 558.88-0.34375 0.9375 16.531 6.3438 0.34375-0.9375-16.531-6.3438z" fill="#728188"/>
    <path d="m-632.41 565.16-0.375 0.90625 14.312 5.75 0.375-0.9375-14.312-5.7188z" fill="#728188"/>
    <path d="m-632.41 570.91-0.40625 0.90625 13.438 6 0.40625-0.90625-13.438-6z" fill="#728188"/>
    <path d="m-631.75 577.44-0.4375 0.90625 10.688 5.0312 0.4375-0.90625-10.688-5.0312z" fill="#728188"/>
    <path d="m-613.9375,584.25-.375.90625 4.6875,1.9375 .375-.90625-4.6875-1.9375z" fill="#728188"/>
    <path d="m-611.69 578.34-0.4375 0.875 2.8125 1.4062 0.4375-0.875-2.8125-1.4062z" fill="#728188"/>
    <path transform="translate(-2.2097)" d="m-613.06156,483.93671c0,.78105-.35616,1.41421-.7955,1.41421s-.79549-.63316-.79549-1.41421 .35615-1.41422.79549-1.41422 .7955.63317.7955,1.41422z" fill="#f4ffff"/>
    <path transform="translate(-4.2427 -.7071)" d="m-613.06156,483.93671c0,.78105-.35616,1.41421-.7955,1.41421s-.79549-.63316-.79549-1.41421 .35615-1.41422.79549-1.41422 .7955.63317.7955,1.41422z" fill="#f4ffff"/>
    <path transform="matrix(1 0 0 .84375 -4.4194 80.256)" d="m-613.06156,483.93671c0,.78105-.35616,1.41421-.7955,1.41421s-.79549-.63316-.79549-1.41421 .35615-1.41422.79549-1.41422 .7955.63317.7955,1.41422z" fill="#f4ffff"/>
    <path transform="matrix(1 0 0 .875 -2.033 65.177)" d="m-613.06156,483.93671c0,.78105-.35616,1.41421-.7955,1.41421s-.79549-.63316-.79549-1.41421 .35615-1.41422.79549-1.41422 .7955.63317.7955,1.41422z" fill="#f4ffff"/>
    <path transform="matrix(1.1667 0 0 1.5625 100.06 -259.93)" d="m-613.06156,483.93671c0,.78105-.35616,1.41421-.7955,1.41421s-.79549-.63316-.79549-1.41421 .35615-1.41422.79549-1.41422 .7955.63317.7955,1.41422z" fill="#f4ffff"/>
    <path transform="matrix(.94444 0 0 1.3125 -39.097 -139.92)" d="m-613.06156,483.93671c0,.78105-.35616,1.41421-.7955,1.41421s-.79549-.63316-.79549-1.41421 .35615-1.41422.79549-1.41422 .7955.63317.7955,1.41422z" fill="#f4ffff"/>
    <path transform="matrix(1.1111 0 0 1.5938 66.173 -267.94)" d="m-613.06156,483.93671c0,.78105-.35616,1.41421-.7955,1.41421s-.79549-.63316-.79549-1.41421 .35615-1.41422.79549-1.41422 .7955.63317.7955,1.41422z" fill="#f4ffff"/>
    <path transform="matrix(.77778 0 0 .78125 -135.62 117.66)" d="m-613.06156,483.93671c0,.78105-.35616,1.41421-.7955,1.41421s-.79549-.63316-.79549-1.41421 .35615-1.41422.79549-1.41422 .7955.63317.7955,1.41422z" fill="#f4ffff"/>
    <path transform="matrix(1.0556 0 0 1.6875 36.269 -306.46)" d="m-613.06156,483.93671c0,.78105-.35616,1.41421-.7955,1.41421s-.79549-.63316-.79549-1.41421 .35615-1.41422.79549-1.41422 .7955.63317.7955,1.41422z" fill="#f4ffff"/>
    <path transform="matrix(1.1111 0 0 1.9375 71.212 -420.1)" d="m-613.06156,483.93671c0,.78105-.35616,1.41421-.7955,1.41421s-.79549-.63316-.79549-1.41421 .35615-1.41422.79549-1.41422 .7955.63317.7955,1.41422z" fill="#f4ffff"/>
    <path transform="matrix(1 0 0 1.3438 -.35357 -134.31)" d="m-613.06156,483.93671c0,.78105-.35616,1.41421-.7955,1.41421s-.79549-.63316-.79549-1.41421 .35615-1.41422.79549-1.41422 .7955.63317.7955,1.41422z" fill="#f4ffff"/>
    <path transform="matrix(1.1111 0 0 1.625 68.825 -262.86)" d="m-613.06156,483.93671c0,.78105-.35616,1.41421-.7955,1.41421s-.79549-.63316-.79549-1.41421 .35615-1.41422.79549-1.41422 .7955.63317.7955,1.41422z" fill="#f4ffff"/>
    <path transform="matrix(1 0 0 .84375 .70709 96.696)" d="m-613.06156,483.93671c0,.78105-.35616,1.41421-.7955,1.41421s-.79549-.63316-.79549-1.41421 .35615-1.41422.79549-1.41422 .7955.63317.7955,1.41422z" fill="#f4ffff"/>
    <path transform="matrix(1 0 0 .84375 -1.3258 102.79)" d="m-613.06156,483.93671c0,.78105-.35616,1.41421-.7955,1.41421s-.79549-.63316-.79549-1.41421 .35615-1.41422.79549-1.41422 .7955.63317.7955,1.41422z" fill="#f4ffff"/>
    <path transform="matrix(1.1778 -.49637 .41688 1.4023 -90.105 -453.39)" d="m-613.06156,483.93671c0,.78105-.35616,1.41421-.7955,1.41421s-.79549-.63316-.79549-1.41421 .35615-1.41422.79549-1.41422 .7955.63317.7955,1.41422z" fill="#f4ffff"/>
    <path transform="matrix(1.1667 0 0 1.6562 106.24 -264.24)" d="m-613.06156,483.93671c0,.78105-.35616,1.41421-.7955,1.41421s-.79549-.63316-.79549-1.41421 .35615-1.41422.79549-1.41422 .7955.63317.7955,1.41422z" fill="#f4ffff"/>
    <path transform="translate(2.74 61.165)" d="m-613.06156,483.93671c0,.78105-.35616,1.41421-.7955,1.41421s-.79549-.63316-.79549-1.41421 .35615-1.41422.79549-1.41422 .7955.63317.7955,1.41422z" fill="#f4ffff"/>
    <path transform="matrix(1.1667 0 0 1.4062 106.86 -130.53)" d="m-613.06156,483.93671c0,.78105-.35616,1.41421-.7955,1.41421s-.79549-.63316-.79549-1.41421 .35615-1.41422.79549-1.41422 .7955.63317.7955,1.41422z" fill="#f4ffff"/>
    <path transform="matrix(1.1667 0 0 .84375 106.86 117.2)" d="m-613.06156,483.93671c0,.78105-.35616,1.41421-.7955,1.41421s-.79549-.63316-.79549-1.41421 .35615-1.41422.79549-1.41422 .7955.63317.7955,1.41422z" fill="#f4ffff"/>
    <path transform="matrix(.88889 0 0 .6875 -63.787 189.77)" d="m-613.06156,483.93671c0,.78105-.35616,1.41421-.7955,1.41421s-.79549-.63316-.79549-1.41421 .35615-1.41422.79549-1.41422 .7955.63317.7955,1.41422z" fill="#f4ffff"/>
    <path transform="matrix(1.3889 0 0 1.8125 242.21 -320.01)" d="m-613.06156,483.93671c0,.78105-.35616,1.41421-.7955,1.41421s-.79549-.63316-.79549-1.41421 .35615-1.41422.79549-1.41422 .7955.63317.7955,1.41422z" fill="#f4ffff"/>
    <path transform="translate(1.149 67.705)" d="m-613.06156,483.93671c0,.78105-.35616,1.41421-.7955,1.41421s-.79549-.63316-.79549-1.41421 .35615-1.41422.79549-1.41422 .7955.63317.7955,1.41422z" fill="#f4ffff"/>
    <path transform="matrix(.94444 0 0 .5625 -33.971 282.7)" d="m-613.06156,483.93671c0,.78105-.35616,1.41421-.7955,1.41421s-.79549-.63316-.79549-1.41421 .35615-1.41422.79549-1.41422 .7955.63317.7955,1.41422z" fill="#f4ffff"/>
    <path transform="matrix(1.0556 0 0 1.375 33.263 -102.55)" d="m-613.06156,483.93671c0,.78105-.35616,1.41421-.7955,1.41421s-.79549-.63316-.79549-1.41421 .35615-1.41422.79549-1.41422 .7955.63317.7955,1.41422z" fill="#f4ffff"/>
    <path transform="matrix(.83333 0 0 .84375 -99.614 156.18)" d="m-613.06156,483.93671c0,.78105-.35616,1.41421-.7955,1.41421s-.79549-.63316-.79549-1.41421 .35615-1.41422.79549-1.41422 .7955.63317.7955,1.41422z" fill="#f4ffff"/>
    <path transform="matrix(1.2778 0 0 1.4688 169.32 -141.59)" d="m-613.06156,483.93671c0,.78105-.35616,1.41421-.7955,1.41421s-.79549-.63316-.79549-1.41421 .35615-1.41422.79549-1.41422 .7955.63317.7955,1.41422z" fill="#f4ffff"/>
    <path transform="translate(1.591 91.924)" d="m-613.06156,483.93671c0,.78105-.35616,1.41421-.7955,1.41421s-.79549-.63316-.79549-1.41421 .35615-1.41422.79549-1.41422 .7955.63317.7955,1.41422z" fill="#f4ffff"/>
    <path transform="matrix(.99423 -.10729 .10729 .99423 -56.88 27.088)" d="m-613.06156,483.93671c0,.78105-.35616,1.41421-.7955,1.41421s-.79549-.63316-.79549-1.41421 .35615-1.41422.79549-1.41422 .7955.63317.7955,1.41422z" fill="#f4ffff"/>
    <path transform="matrix(.97259 -.23251 .18891 .79023 -112.31 49.298)" d="m-613.06156,483.93671c0,.78105-.35616,1.41421-.7955,1.41421s-.79549-.63316-.79549-1.41421 .35615-1.41422.79549-1.41422 .7955.63317.7955,1.41422z" fill="#f4ffff"/>
    <path transform="translate(.97225 96.785)" d="m-613.06156,483.93671c0,.78105-.35616,1.41421-.7955,1.41421s-.79549-.63316-.79549-1.41421 .35615-1.41422.79549-1.41422 .7955.63317.7955,1.41422z" fill="#f4ffff"/>
    <path transform="matrix(1 0 0 1.25 -1.4142 -24.376)" d="m-613.06156,483.93671c0,.78105-.35616,1.41421-.7955,1.41421s-.79549-.63316-.79549-1.41421 .35615-1.41422.79549-1.41422 .7955.63317.7955,1.41422z" fill="#f4ffff"/>
    <path transform="matrix(.9778 -.25606 .20953 1.195 -118.81 -154.9)" d="m-613.06156,483.93671c0,.78105-.35616,1.41421-.7955,1.41421s-.79549-.63316-.79549-1.41421 .35615-1.41422.79549-1.41422 .7955.63317.7955,1.41422z" fill="#f4ffff"/>
    <path transform="matrix(.94444 0 0 .71875 -29.728 221.45)" d="m-613.06156,483.93671c0,.78105-.35616,1.41421-.7955,1.41421s-.79549-.63316-.79549-1.41421 .35615-1.41422.79549-1.41422 .7955.63317.7955,1.41422z" fill="#f4ffff"/>
    <path transform="matrix(.94444 0 0 .8125 -32.556 174.88)" d="m-613.06156,483.93671c0,.78105-.35616,1.41421-.7955,1.41421s-.79549-.63316-.79549-1.41421 .35615-1.41422.79549-1.41422 .7955.63317.7955,1.41422z" fill="#f4ffff"/>
    <path d="m-627.33 481.06-0.99246-0.15909-0.87281 100.49 0.99246 0.15908 0.87281-100.49z" fill="#728188"/>
    <path d="m-622.56 484.07-0.99246-0.15909-0.87281 100.49 0.99246 0.15908 0.87281-100.49z" fill="#728188"/>
    <path d="m-618.49 491.83-0.99246-0.14288-0.87281 90.251 0.99246 0.14288 0.87281-90.251z" fill="#728188"/>
    <path d="m-615.13 485.66-0.99246-0.15909-0.87281 100.49 0.99246 0.15908 0.87281-100.49z" fill="#728188"/>
   </g>
   <g transform="matrix(1 0 0 1.1498 879.62 60.035)">
    <path d="m-633.21 475.54 23.865 6.364c1.0323 36.636 1.0296 73.79 0.17677 111.37l-23.688-10.076c-0.46425-36.059-0.81893-72.063-0.35355-107.66z" fill="#0a1920"/>
    <path d="m-632.9375,482.3125-.21875.96875 22.625,5.125 .21875-.96875-22.625-5.125z" fill="#728188"/>
    <path d="m-632.72 488.16-0.28125 0.9375 13.25 4.25 0.3125-0.96875-13.281-4.2188z" fill="#728188"/>
    <path d="m-633.0625,494.25-.3125.9375 15.125,5.125 .3125-.9375-15.125-5.125z" fill="#728188"/>
    <path d="m-612.53125,493.4375-.1875.96875 3.09375.53125 .1875-.96875-3.09375-.53125z" fill="#728188"/>
    <path d="m-633 501.41-0.25 0.96875 16.781 4.75 0.28125-0.96875-16.812-4.75z" fill="#728188"/>
    <path d="m-632.86 508.51h0.0884" fill="none" stroke="#000"/>
    <path d="m-632.69 507.69-0.34375 0.9375 17.5 5.8438 0.34375-0.96875-17.5-5.8125z" fill="#728188"/>
    <path d="m-633 514.41-0.25 0.9375 17.75 5.125 0.28125-0.9375-17.781-5.125z" fill="#728188"/>
    <path d="m-633.06 520.84-0.3125 0.96875 18.656 5.75 0.3125-0.96875-18.656-5.75z" fill="#728188"/>
    <path d="m-633.22 527.03-0.34375 0.96875 18.938 6.4375 0.3125-0.9375-18.906-6.4688z" fill="#728188"/>
    <path d="m-633.16 533.66-0.3125 0.96875 18.406 6.1875 0.3125-0.96875-18.406-6.1875z" fill="#728188"/>
    <path d="m-632.69 539.94-0.34375 0.9375 17.844 6.2812 0.34375-0.9375-17.844-6.2812z" fill="#728188"/>
    <path d="m-632.44 546.84-0.3125 0.9375 17.5 6.1875 0.3125-0.9375-17.5-6.1875z" fill="#728188"/>
    <path d="m-632.78 552.69-0.34375 0.9375 17.25 6.1875 0.34375-0.9375-17.25-6.1875z" fill="#728188"/>
    <path d="m-632.78 558.88-0.34375 0.9375 16.531 6.3438 0.34375-0.9375-16.531-6.3438z" fill="#728188"/>
    <path d="m-632.41 565.16-0.375 0.90625 14.312 5.75 0.375-0.9375-14.312-5.7188z" fill="#728188"/>
    <path d="m-632.41 570.91-0.40625 0.90625 13.438 6 0.40625-0.90625-13.438-6z" fill="#728188"/>
    <path d="m-631.75 577.44-0.4375 0.90625 10.688 5.0312 0.4375-0.90625-10.688-5.0312z" fill="#728188"/>
    <path d="m-613.9375,584.25-.375.90625 4.6875,1.9375 .375-.90625-4.6875-1.9375z" fill="#728188"/>
    <path d="m-611.69 578.34-0.4375 0.875 2.8125 1.4062 0.4375-0.875-2.8125-1.4062z" fill="#728188"/>
    <path transform="translate(-2.2097)" d="m-613.06156,483.93671c0,.78105-.35616,1.41421-.7955,1.41421s-.79549-.63316-.79549-1.41421 .35615-1.41422.79549-1.41422 .7955.63317.7955,1.41422z" fill="#f4ffff"/>
    <path transform="translate(-4.2427 -.7071)" d="m-613.06156,483.93671c0,.78105-.35616,1.41421-.7955,1.41421s-.79549-.63316-.79549-1.41421 .35615-1.41422.79549-1.41422 .7955.63317.7955,1.41422z" fill="#f4ffff"/>
    <path transform="matrix(1 0 0 .84375 -4.4194 80.256)" d="m-613.06156,483.93671c0,.78105-.35616,1.41421-.7955,1.41421s-.79549-.63316-.79549-1.41421 .35615-1.41422.79549-1.41422 .7955.63317.7955,1.41422z" fill="#f4ffff"/>
    <path transform="matrix(1 0 0 .875 -2.033 65.177)" d="m-613.06156,483.93671c0,.78105-.35616,1.41421-.7955,1.41421s-.79549-.63316-.79549-1.41421 .35615-1.41422.79549-1.41422 .7955.63317.7955,1.41422z" fill="#f4ffff"/>
    <path transform="matrix(1.1667 0 0 1.5625 100.06 -259.93)" d="m-613.06156,483.93671c0,.78105-.35616,1.41421-.7955,1.41421s-.79549-.63316-.79549-1.41421 .35615-1.41422.79549-1.41422 .7955.63317.7955,1.41422z" fill="#f4ffff"/>
    <path transform="matrix(.94444 0 0 1.3125 -39.097 -139.92)" d="m-613.06156,483.93671c0,.78105-.35616,1.41421-.7955,1.41421s-.79549-.63316-.79549-1.41421 .35615-1.41422.79549-1.41422 .7955.63317.7955,1.41422z" fill="#f4ffff"/>
    <path transform="matrix(1.1111 0 0 1.5938 66.173 -267.94)" d="m-613.06156,483.93671c0,.78105-.35616,1.41421-.7955,1.41421s-.79549-.63316-.79549-1.41421 .35615-1.41422.79549-1.41422 .7955.63317.7955,1.41422z" fill="#f4ffff"/>
    <path transform="matrix(.77778 0 0 .78125 -135.62 117.66)" d="m-613.06156,483.93671c0,.78105-.35616,1.41421-.7955,1.41421s-.79549-.63316-.79549-1.41421 .35615-1.41422.79549-1.41422 .7955.63317.7955,1.41422z" fill="#f4ffff"/>
    <path transform="matrix(1.0556 0 0 1.6875 36.269 -306.46)" d="m-613.06156,483.93671c0,.78105-.35616,1.41421-.7955,1.41421s-.79549-.63316-.79549-1.41421 .35615-1.41422.79549-1.41422 .7955.63317.7955,1.41422z" fill="#f4ffff"/>
    <path transform="matrix(1.1111 0 0 1.9375 71.212 -420.1)" d="m-613.06156,483.93671c0,.78105-.35616,1.41421-.7955,1.41421s-.79549-.63316-.79549-1.41421 .35615-1.41422.79549-1.41422 .7955.63317.7955,1.41422z" fill="#f4ffff"/>
    <path transform="matrix(1 0 0 1.3438 -.35357 -134.31)" d="m-613.06156,483.93671c0,.78105-.35616,1.41421-.7955,1.41421s-.79549-.63316-.79549-1.41421 .35615-1.41422.79549-1.41422 .7955.63317.7955,1.41422z" fill="#f4ffff"/>
    <path transform="matrix(1.1111 0 0 1.625 68.825 -262.86)" d="m-613.06156,483.93671c0,.78105-.35616,1.41421-.7955,1.41421s-.79549-.63316-.79549-1.41421 .35615-1.41422.79549-1.41422 .7955.63317.7955,1.41422z" fill="#f4ffff"/>
    <path transform="matrix(1 0 0 .84375 .70709 96.696)" d="m-613.06156,483.93671c0,.78105-.35616,1.41421-.7955,1.41421s-.79549-.63316-.79549-1.41421 .35615-1.41422.79549-1.41422 .7955.63317.7955,1.41422z" fill="#f4ffff"/>
    <path transform="matrix(1 0 0 .84375 -1.3258 102.79)" d="m-613.06156,483.93671c0,.78105-.35616,1.41421-.7955,1.41421s-.79549-.63316-.79549-1.41421 .35615-1.41422.79549-1.41422 .7955.63317.7955,1.41422z" fill="#f4ffff"/>
    <path transform="matrix(1.1778 -.49637 .41688 1.4023 -90.105 -453.39)" d="m-613.06156,483.93671c0,.78105-.35616,1.41421-.7955,1.41421s-.79549-.63316-.79549-1.41421 .35615-1.41422.79549-1.41422 .7955.63317.7955,1.41422z" fill="#f4ffff"/>
    <path transform="matrix(1.1667 0 0 1.6562 106.24 -264.24)" d="m-613.06156,483.93671c0,.78105-.35616,1.41421-.7955,1.41421s-.79549-.63316-.79549-1.41421 .35615-1.41422.79549-1.41422 .7955.63317.7955,1.41422z" fill="#f4ffff"/>
    <path transform="translate(2.74 61.165)" d="m-613.06156,483.93671c0,.78105-.35616,1.41421-.7955,1.41421s-.79549-.63316-.79549-1.41421 .35615-1.41422.79549-1.41422 .7955.63317.7955,1.41422z" fill="#f4ffff"/>
    <path transform="matrix(1.1667 0 0 1.4062 106.86 -130.53)" d="m-613.06156,483.93671c0,.78105-.35616,1.41421-.7955,1.41421s-.79549-.63316-.79549-1.41421 .35615-1.41422.79549-1.41422 .7955.63317.7955,1.41422z" fill="#f4ffff"/>
    <path transform="matrix(1.1667 0 0 .84375 106.86 117.2)" d="m-613.06156,483.93671c0,.78105-.35616,1.41421-.7955,1.41421s-.79549-.63316-.79549-1.41421 .35615-1.41422.79549-1.41422 .7955.63317.7955,1.41422z" fill="#f4ffff"/>
    <path transform="matrix(.88889 0 0 .6875 -63.787 189.77)" d="m-613.06156,483.93671c0,.78105-.35616,1.41421-.7955,1.41421s-.79549-.63316-.79549-1.41421 .35615-1.41422.79549-1.41422 .7955.63317.7955,1.41422z" fill="#f4ffff"/>
    <path transform="matrix(1.3889 0 0 1.8125 242.21 -320.01)" d="m-613.06156,483.93671c0,.78105-.35616,1.41421-.7955,1.41421s-.79549-.63316-.79549-1.41421 .35615-1.41422.79549-1.41422 .7955.63317.7955,1.41422z" fill="#f4ffff"/>
    <path transform="translate(1.149 67.705)" d="m-613.06156,483.93671c0,.78105-.35616,1.41421-.7955,1.41421s-.79549-.63316-.79549-1.41421 .35615-1.41422.79549-1.41422 .7955.63317.7955,1.41422z" fill="#f4ffff"/>
    <path transform="matrix(.94444 0 0 .5625 -33.971 282.7)" d="m-613.06156,483.93671c0,.78105-.35616,1.41421-.7955,1.41421s-.79549-.63316-.79549-1.41421 .35615-1.41422.79549-1.41422 .7955.63317.7955,1.41422z" fill="#f4ffff"/>
    <path transform="matrix(1.0556 0 0 1.375 33.263 -102.55)" d="m-613.06156,483.93671c0,.78105-.35616,1.41421-.7955,1.41421s-.79549-.63316-.79549-1.41421 .35615-1.41422.79549-1.41422 .7955.63317.7955,1.41422z" fill="#f4ffff"/>
    <path transform="matrix(.83333 0 0 .84375 -99.614 156.18)" d="m-613.06156,483.93671c0,.78105-.35616,1.41421-.7955,1.41421s-.79549-.63316-.79549-1.41421 .35615-1.41422.79549-1.41422 .7955.63317.7955,1.41422z" fill="#f4ffff"/>
    <path transform="matrix(1.2778 0 0 1.4688 169.32 -141.59)" d="m-613.06156,483.93671c0,.78105-.35616,1.41421-.7955,1.41421s-.79549-.63316-.79549-1.41421 .35615-1.41422.79549-1.41422 .7955.63317.7955,1.41422z" fill="#f4ffff"/>
    <path transform="translate(1.591 91.924)" d="m-613.06156,483.93671c0,.78105-.35616,1.41421-.7955,1.41421s-.79549-.63316-.79549-1.41421 .35615-1.41422.79549-1.41422 .7955.63317.7955,1.41422z" fill="#f4ffff"/>
    <path transform="matrix(.99423 -.10729 .10729 .99423 -56.88 27.088)" d="m-613.06156,483.93671c0,.78105-.35616,1.41421-.7955,1.41421s-.79549-.63316-.79549-1.41421 .35615-1.41422.79549-1.41422 .7955.63317.7955,1.41422z" fill="#f4ffff"/>
    <path transform="matrix(.97259 -.23251 .18891 .79023 -112.31 49.298)" d="m-613.06156,483.93671c0,.78105-.35616,1.41421-.7955,1.41421s-.79549-.63316-.79549-1.41421 .35615-1.41422.79549-1.41422 .7955.63317.7955,1.41422z" fill="#f4ffff"/>
    <path transform="translate(.97225 96.785)" d="m-613.06156,483.93671c0,.78105-.35616,1.41421-.7955,1.41421s-.79549-.63316-.79549-1.41421 .35615-1.41422.79549-1.41422 .7955.63317.7955,1.41422z" fill="#f4ffff"/>
    <path transform="matrix(1 0 0 1.25 -1.4142 -24.376)" d="m-613.06156,483.93671c0,.78105-.35616,1.41421-.7955,1.41421s-.79549-.63316-.79549-1.41421 .35615-1.41422.79549-1.41422 .7955.63317.7955,1.41422z" fill="#f4ffff"/>
    <path transform="matrix(.9778 -.25606 .20953 1.195 -118.81 -154.9)" d="m-613.06156,483.93671c0,.78105-.35616,1.41421-.7955,1.41421s-.79549-.63316-.79549-1.41421 .35615-1.41422.79549-1.41422 .7955.63317.7955,1.41422z" fill="#f4ffff"/>
    <path transform="matrix(.94444 0 0 .71875 -29.728 221.45)" d="m-613.06156,483.93671c0,.78105-.35616,1.41421-.7955,1.41421s-.79549-.63316-.79549-1.41421 .35615-1.41422.79549-1.41422 .7955.63317.7955,1.41422z" fill="#f4ffff"/>
    <path transform="matrix(.94444 0 0 .8125 -32.556 174.88)" d="m-613.06156,483.93671c0,.78105-.35616,1.41421-.7955,1.41421s-.79549-.63316-.79549-1.41421 .35615-1.41422.79549-1.41422 .7955.63317.7955,1.41422z" fill="#f4ffff"/>
    <path d="m-627.33 481.06-0.99246-0.15909-0.87281 100.49 0.99246 0.15908 0.87281-100.49z" fill="#728188"/>
    <path d="m-622.56 484.07-0.99246-0.15909-0.87281 100.49 0.99246 0.15908 0.87281-100.49z" fill="#728188"/>
    <path d="m-618.49 491.83-0.99246-0.14288-0.87281 90.251 0.99246 0.14288 0.87281-90.251z" fill="#728188"/>
    <path d="m-615.13 485.66-0.99246-0.15909-0.87281 100.49 0.99246 0.15908 0.87281-100.49z" fill="#728188"/>
   </g>
   <g transform="matrix(1 0 0 1.1498 880.47 -53.277)">
    <path d="m-633.21 475.54 23.865 6.364c1.0323 36.636 1.0296 73.79 0.17677 111.37l-23.688-10.076c-0.46425-36.059-0.81893-72.063-0.35355-107.66z" fill="#0a1920"/>
    <path d="m-632.9375,482.3125-.21875.96875 22.625,5.125 .21875-.96875-22.625-5.125z" fill="#728188"/>
    <path d="m-632.72 488.16-0.28125 0.9375 13.25 4.25 0.3125-0.96875-13.281-4.2188z" fill="#728188"/>
    <path d="m-633.0625,494.25-.3125.9375 15.125,5.125 .3125-.9375-15.125-5.125z" fill="#728188"/>
    <path d="m-612.53125,493.4375-.1875.96875 3.09375.53125 .1875-.96875-3.09375-.53125z" fill="#728188"/>
    <path d="m-633 501.41-0.25 0.96875 16.781 4.75 0.28125-0.96875-16.812-4.75z" fill="#728188"/>
    <path d="m-632.86 508.51h0.0884" fill="none" stroke="#000"/>
    <path d="m-632.69 507.69-0.34375 0.9375 17.5 5.8438 0.34375-0.96875-17.5-5.8125z" fill="#728188"/>
    <path d="m-633 514.41-0.25 0.9375 17.75 5.125 0.28125-0.9375-17.781-5.125z" fill="#728188"/>
    <path d="m-633.06 520.84-0.3125 0.96875 18.656 5.75 0.3125-0.96875-18.656-5.75z" fill="#728188"/>
    <path d="m-633.22 527.03-0.34375 0.96875 18.938 6.4375 0.3125-0.9375-18.906-6.4688z" fill="#728188"/>
    <path d="m-633.16 533.66-0.3125 0.96875 18.406 6.1875 0.3125-0.96875-18.406-6.1875z" fill="#728188"/>
    <path d="m-632.69 539.94-0.34375 0.9375 17.844 6.2812 0.34375-0.9375-17.844-6.2812z" fill="#728188"/>
    <path d="m-632.44 546.84-0.3125 0.9375 17.5 6.1875 0.3125-0.9375-17.5-6.1875z" fill="#728188"/>
    <path d="m-632.78 552.69-0.34375 0.9375 17.25 6.1875 0.34375-0.9375-17.25-6.1875z" fill="#728188"/>
    <path d="m-632.78 558.88-0.34375 0.9375 16.531 6.3438 0.34375-0.9375-16.531-6.3438z" fill="#728188"/>
    <path d="m-632.41 565.16-0.375 0.90625 14.312 5.75 0.375-0.9375-14.312-5.7188z" fill="#728188"/>
    <path d="m-632.41 570.91-0.40625 0.90625 13.438 6 0.40625-0.90625-13.438-6z" fill="#728188"/>
    <path d="m-631.75 577.44-0.4375 0.90625 10.688 5.0312 0.4375-0.90625-10.688-5.0312z" fill="#728188"/>
    <path d="m-613.9375,584.25-.375.90625 4.6875,1.9375 .375-.90625-4.6875-1.9375z" fill="#728188"/>
    <path d="m-611.69 578.34-0.4375 0.875 2.8125 1.4062 0.4375-0.875-2.8125-1.4062z" fill="#728188"/>
    <path transform="translate(-2.2097)" d="m-613.06156,483.93671c0,.78105-.35616,1.41421-.7955,1.41421s-.79549-.63316-.79549-1.41421 .35615-1.41422.79549-1.41422 .7955.63317.7955,1.41422z" fill="#f4ffff"/>
    <path transform="translate(-4.2427 -.7071)" d="m-613.06156,483.93671c0,.78105-.35616,1.41421-.7955,1.41421s-.79549-.63316-.79549-1.41421 .35615-1.41422.79549-1.41422 .7955.63317.7955,1.41422z" fill="#f4ffff"/>
    <path transform="matrix(1 0 0 .84375 -4.4194 80.256)" d="m-613.06156,483.93671c0,.78105-.35616,1.41421-.7955,1.41421s-.79549-.63316-.79549-1.41421 .35615-1.41422.79549-1.41422 .7955.63317.7955,1.41422z" fill="#f4ffff"/>
    <path transform="matrix(1 0 0 .875 -2.033 65.177)" d="m-613.06156,483.93671c0,.78105-.35616,1.41421-.7955,1.41421s-.79549-.63316-.79549-1.41421 .35615-1.41422.79549-1.41422 .7955.63317.7955,1.41422z" fill="#f4ffff"/>
    <path transform="matrix(1.1667 0 0 1.5625 100.06 -259.93)" d="m-613.06156,483.93671c0,.78105-.35616,1.41421-.7955,1.41421s-.79549-.63316-.79549-1.41421 .35615-1.41422.79549-1.41422 .7955.63317.7955,1.41422z" fill="#f4ffff"/>
    <path transform="matrix(.94444 0 0 1.3125 -39.097 -139.92)" d="m-613.06156,483.93671c0,.78105-.35616,1.41421-.7955,1.41421s-.79549-.63316-.79549-1.41421 .35615-1.41422.79549-1.41422 .7955.63317.7955,1.41422z" fill="#f4ffff"/>
    <path transform="matrix(1.1111 0 0 1.5938 66.173 -267.94)" d="m-613.06156,483.93671c0,.78105-.35616,1.41421-.7955,1.41421s-.79549-.63316-.79549-1.41421 .35615-1.41422.79549-1.41422 .7955.63317.7955,1.41422z" fill="#f4ffff"/>
    <path transform="matrix(.77778 0 0 .78125 -135.62 117.66)" d="m-613.06156,483.93671c0,.78105-.35616,1.41421-.7955,1.41421s-.79549-.63316-.79549-1.41421 .35615-1.41422.79549-1.41422 .7955.63317.7955,1.41422z" fill="#f4ffff"/>
    <path transform="matrix(1.0556 0 0 1.6875 36.269 -306.46)" d="m-613.06156,483.93671c0,.78105-.35616,1.41421-.7955,1.41421s-.79549-.63316-.79549-1.41421 .35615-1.41422.79549-1.41422 .7955.63317.7955,1.41422z" fill="#f4ffff"/>
    <path transform="matrix(1.1111 0 0 1.9375 71.212 -420.1)" d="m-613.06156,483.93671c0,.78105-.35616,1.41421-.7955,1.41421s-.79549-.63316-.79549-1.41421 .35615-1.41422.79549-1.41422 .7955.63317.7955,1.41422z" fill="#f4ffff"/>
    <path transform="matrix(1 0 0 1.3438 -.35357 -134.31)" d="m-613.06156,483.93671c0,.78105-.35616,1.41421-.7955,1.41421s-.79549-.63316-.79549-1.41421 .35615-1.41422.79549-1.41422 .7955.63317.7955,1.41422z" fill="#f4ffff"/>
    <path transform="matrix(1.1111 0 0 1.625 68.825 -262.86)" d="m-613.06156,483.93671c0,.78105-.35616,1.41421-.7955,1.41421s-.79549-.63316-.79549-1.41421 .35615-1.41422.79549-1.41422 .7955.63317.7955,1.41422z" fill="#f4ffff"/>
    <path transform="matrix(1 0 0 .84375 .70709 96.696)" d="m-613.06156,483.93671c0,.78105-.35616,1.41421-.7955,1.41421s-.79549-.63316-.79549-1.41421 .35615-1.41422.79549-1.41422 .7955.63317.7955,1.41422z" fill="#f4ffff"/>
    <path transform="matrix(1 0 0 .84375 -1.3258 102.79)" d="m-613.06156,483.93671c0,.78105-.35616,1.41421-.7955,1.41421s-.79549-.63316-.79549-1.41421 .35615-1.41422.79549-1.41422 .7955.63317.7955,1.41422z" fill="#f4ffff"/>
    <path transform="matrix(1.1778 -.49637 .41688 1.4023 -90.105 -453.39)" d="m-613.06156,483.93671c0,.78105-.35616,1.41421-.7955,1.41421s-.79549-.63316-.79549-1.41421 .35615-1.41422.79549-1.41422 .7955.63317.7955,1.41422z" fill="#f4ffff"/>
    <path transform="matrix(1.1667 0 0 1.6562 106.24 -264.24)" d="m-613.06156,483.93671c0,.78105-.35616,1.41421-.7955,1.41421s-.79549-.63316-.79549-1.41421 .35615-1.41422.79549-1.41422 .7955.63317.7955,1.41422z" fill="#f4ffff"/>
    <path transform="translate(2.74 61.165)" d="m-613.06156,483.93671c0,.78105-.35616,1.41421-.7955,1.41421s-.79549-.63316-.79549-1.41421 .35615-1.41422.79549-1.41422 .7955.63317.7955,1.41422z" fill="#f4ffff"/>
    <path transform="matrix(1.1667 0 0 1.4062 106.86 -130.53)" d="m-613.06156,483.93671c0,.78105-.35616,1.41421-.7955,1.41421s-.79549-.63316-.79549-1.41421 .35615-1.41422.79549-1.41422 .7955.63317.7955,1.41422z" fill="#f4ffff"/>
    <path transform="matrix(1.1667 0 0 .84375 106.86 117.2)" d="m-613.06156,483.93671c0,.78105-.35616,1.41421-.7955,1.41421s-.79549-.63316-.79549-1.41421 .35615-1.41422.79549-1.41422 .7955.63317.7955,1.41422z" fill="#f4ffff"/>
    <path transform="matrix(.88889 0 0 .6875 -63.787 189.77)" d="m-613.06156,483.93671c0,.78105-.35616,1.41421-.7955,1.41421s-.79549-.63316-.79549-1.41421 .35615-1.41422.79549-1.41422 .7955.63317.7955,1.41422z" fill="#f4ffff"/>
    <path transform="matrix(1.3889 0 0 1.8125 242.21 -320.01)" d="m-613.06156,483.93671c0,.78105-.35616,1.41421-.7955,1.41421s-.79549-.63316-.79549-1.41421 .35615-1.41422.79549-1.41422 .7955.63317.7955,1.41422z" fill="#f4ffff"/>
    <path transform="translate(1.149 67.705)" d="m-613.06156,483.93671c0,.78105-.35616,1.41421-.7955,1.41421s-.79549-.63316-.79549-1.41421 .35615-1.41422.79549-1.41422 .7955.63317.7955,1.41422z" fill="#f4ffff"/>
    <path transform="matrix(.94444 0 0 .5625 -33.971 282.7)" d="m-613.06156,483.93671c0,.78105-.35616,1.41421-.7955,1.41421s-.79549-.63316-.79549-1.41421 .35615-1.41422.79549-1.41422 .7955.63317.7955,1.41422z" fill="#f4ffff"/>
    <path transform="matrix(1.0556 0 0 1.375 33.263 -102.55)" d="m-613.06156,483.93671c0,.78105-.35616,1.41421-.7955,1.41421s-.79549-.63316-.79549-1.41421 .35615-1.41422.79549-1.41422 .7955.63317.7955,1.41422z" fill="#f4ffff"/>
    <path transform="matrix(.83333 0 0 .84375 -99.614 156.18)" d="m-613.06156,483.93671c0,.78105-.35616,1.41421-.7955,1.41421s-.79549-.63316-.79549-1.41421 .35615-1.41422.79549-1.41422 .7955.63317.7955,1.41422z" fill="#f4ffff"/>
    <path transform="matrix(1.2778 0 0 1.4688 169.32 -141.59)" d="m-613.06156,483.93671c0,.78105-.35616,1.41421-.7955,1.41421s-.79549-.63316-.79549-1.41421 .35615-1.41422.79549-1.41422 .7955.63317.7955,1.41422z" fill="#f4ffff"/>
    <path transform="translate(1.591 91.924)" d="m-613.06156,483.93671c0,.78105-.35616,1.41421-.7955,1.41421s-.79549-.63316-.79549-1.41421 .35615-1.41422.79549-1.41422 .7955.63317.7955,1.41422z" fill="#f4ffff"/>
    <path transform="matrix(.99423 -.10729 .10729 .99423 -56.88 27.088)" d="m-613.06156,483.93671c0,.78105-.35616,1.41421-.7955,1.41421s-.79549-.63316-.79549-1.41421 .35615-1.41422.79549-1.41422 .7955.63317.7955,1.41422z" fill="#f4ffff"/>
    <path transform="matrix(.97259 -.23251 .18891 .79023 -112.31 49.298)" d="m-613.06156,483.93671c0,.78105-.35616,1.41421-.7955,1.41421s-.79549-.63316-.79549-1.41421 .35615-1.41422.79549-1.41422 .7955.63317.7955,1.41422z" fill="#f4ffff"/>
    <path transform="translate(.97225 96.785)" d="m-613.06156,483.93671c0,.78105-.35616,1.41421-.7955,1.41421s-.79549-.63316-.79549-1.41421 .35615-1.41422.79549-1.41422 .7955.63317.7955,1.41422z" fill="#f4ffff"/>
    <path transform="matrix(1 0 0 1.25 -1.4142 -24.376)" d="m-613.06156,483.93671c0,.78105-.35616,1.41421-.7955,1.41421s-.79549-.63316-.79549-1.41421 .35615-1.41422.79549-1.41422 .7955.63317.7955,1.41422z" fill="#f4ffff"/>
    <path transform="matrix(.9778 -.25606 .20953 1.195 -118.81 -154.9)" d="m-613.06156,483.93671c0,.78105-.35616,1.41421-.7955,1.41421s-.79549-.63316-.79549-1.41421 .35615-1.41422.79549-1.41422 .7955.63317.7955,1.41422z" fill="#f4ffff"/>
    <path transform="matrix(.94444 0 0 .71875 -29.728 221.45)" d="m-613.06156,483.93671c0,.78105-.35616,1.41421-.7955,1.41421s-.79549-.63316-.79549-1.41421 .35615-1.41422.79549-1.41422 .7955.63317.7955,1.41422z" fill="#f4ffff"/>
    <path transform="matrix(.94444 0 0 .8125 -32.556 174.88)" d="m-613.06156,483.93671c0,.78105-.35616,1.41421-.7955,1.41421s-.79549-.63316-.79549-1.41421 .35615-1.41422.79549-1.41422 .7955.63317.7955,1.41422z" fill="#f4ffff"/>
    <path d="m-627.33 481.06-0.99246-0.15909-0.87281 100.49 0.99246 0.15908 0.87281-100.49z" fill="#728188"/>
    <path d="m-622.56 484.07-0.99246-0.15909-0.87281 100.49 0.99246 0.15908 0.87281-100.49z" fill="#728188"/>
    <path d="m-618.49 491.83-0.99246-0.14288-0.87281 90.251 0.99246 0.14288 0.87281-90.251z" fill="#728188"/>
    <path d="m-615.13 485.66-0.99246-0.15909-0.87281 100.49 0.99246 0.15908 0.87281-100.49z" fill="#728188"/>
   </g>
  </g>
  <path d="m127.79 96.593c40.896 1.8088-4.957 117.62 111 25 42.149 321.69 11.026 413.79 16 619-44.246 162.54-85.271 51.379-127 0v-644z" fill="#728188" filter="url(#ak)" opacity=".17994"/>
 </g>
</svg>
