<svg height="512" viewBox="0 0 512 512" width="512" xmlns="http://www.w3.org/2000/svg"><g><g><path d="m283 160h53a40 40 0 0 0 0-80h-.44a72.008 72.008 0 0 0 -133.35-28.97 56.014 56.014 0 1 0 -18.21 108.97z" fill="#acabb1"/><g><rect fill="#57565c" height="48" rx="12" width="176" x="320" y="328"/><circle cx="344" cy="352" fill="#ffda44" r="8"/><circle cx="368" cy="352" fill="#ffda44" r="8"/><rect fill="#898890" height="48" rx="12" width="176" x="320" y="376"/><circle cx="344" cy="400" fill="#ffda44" r="8"/><circle cx="368" cy="400" fill="#ffda44" r="8"/><rect fill="#57565c" height="48" rx="12" width="176" x="320" y="424"/><g fill="#ffda44"><circle cx="344" cy="448" r="8"/><circle cx="368" cy="448" r="8"/><path d="m392 304h32v24h-32z"/><path d="m392 472h32v24h-32z"/></g></g><g><rect fill="#57565c" height="48" rx="12" width="176" x="16" y="328"/><circle cx="40" cy="352" fill="#ffda44" r="8"/><circle cx="64" cy="352" fill="#ffda44" r="8"/><rect fill="#898890" height="48" rx="12" width="176" x="16" y="376"/><circle cx="40" cy="400" fill="#ffda44" r="8"/><circle cx="64" cy="400" fill="#ffda44" r="8"/><rect fill="#57565c" height="48" rx="12" width="176" x="16" y="424"/><g fill="#ffda44"><circle cx="40" cy="448" r="8"/><circle cx="64" cy="448" r="8"/><path d="m88 304h32v24h-32z"/><path d="m88 472h32v24h-32z"/></g></g></g><g><path d="m504 340a20.02 20.02 0 0 0 -20-20h-52v-16a8 8 0 0 0 -8-8h-8v-40a8 8 0 0 0 -8-8h-144v-80h72a48.006 48.006 0 0 0 6.48-95.57 79.942 79.942 0 0 0 -78.48-64.43 80.519 80.519 0 0 0 -65.25 33.71 64.012 64.012 0 1 0 -14.75 126.29h64v80h-144a8 8 0 0 0 -8 8v40h-8a8 8 0 0 0 -8 8v16h-52a20.02 20.02 0 0 0 -20 20v24a19.907 19.907 0 0 0 4.04 12 19.907 19.907 0 0 0 -4.04 12v24a19.907 19.907 0 0 0 4.04 12 19.907 19.907 0 0 0 -4.04 12v24a20.02 20.02 0 0 0 20 20h52v16a8 8 0 0 0 8 8h32a8 8 0 0 0 8-8v-16h52a20.02 20.02 0 0 0 20-20v-24a19.907 19.907 0 0 0 -4.04-12 19.907 19.907 0 0 0 4.04-12v-24a19.907 19.907 0 0 0 -4.04-12 19.907 19.907 0 0 0 4.04-12v-24a20.02 20.02 0 0 0 -20-20h-52v-16a8 8 0 0 0 -8-8h-8v-32h288v32h-8a8 8 0 0 0 -8 8v16h-52a20.02 20.02 0 0 0 -20 20v24a19.907 19.907 0 0 0 4.04 12 19.907 19.907 0 0 0 -4.04 12v24a19.907 19.907 0 0 0 4.04 12 19.907 19.907 0 0 0 -4.04 12v24a20.02 20.02 0 0 0 20 20h52v16a8 8 0 0 0 8 8h32a8 8 0 0 0 8-8v-16h52a20.02 20.02 0 0 0 20-20v-24a19.907 19.907 0 0 0 -4.04-12 19.907 19.907 0 0 0 4.04-12v-24a19.907 19.907 0 0 0 -4.04-12 19.907 19.907 0 0 0 4.04-12zm-408-28h16v8h-16zm16 176h-16v-8h16zm72-28a4 4 0 0 1 -4 4h-152a4 4 0 0 1 -4-4v-24a4 4 0 0 1 4-4h152a4 4 0 0 1 4 4zm0-48a4 4 0 0 1 -4 4h-152a4 4 0 0 1 -4-4v-24a4 4 0 0 1 4-4h152a4 4 0 0 1 4 4zm-4-76a4 4 0 0 1 4 4v24a4 4 0 0 1 -4 4h-152a4 4 0 0 1 -4-4v-24a4 4 0 0 1 4-4zm4-184a48 48 0 1 1 15.61-93.4 8.013 8.013 0 0 0 9.46-3.46 63.994 63.994 0 0 1 118.54 25.73 7.994 7.994 0 0 0 7.95 7.13h.44a32 32 0 0 1 0 64zm216 160h16v8h-16zm16 176h-16v-8h16zm72-28a4 4 0 0 1 -4 4h-152a4 4 0 0 1 -4-4v-24a4 4 0 0 1 4-4h152a4 4 0 0 1 4 4zm0-48a4 4 0 0 1 -4 4h-152a4 4 0 0 1 -4-4v-24a4 4 0 0 1 4-4h152a4 4 0 0 1 4 4zm0-48a4 4 0 0 1 -4 4h-152a4 4 0 0 1 -4-4v-24a4 4 0 0 1 4-4h152a4 4 0 0 1 4 4z"/><circle cx="344" cy="352" r="8"/><circle cx="368" cy="352" r="8"/><path d="m432 360h40a8 8 0 0 0 0-16h-40a8 8 0 0 0 0 16z"/><circle cx="344" cy="400" r="8"/><circle cx="368" cy="400" r="8"/><path d="m432 408h40a8 8 0 0 0 0-16h-40a8 8 0 0 0 0 16z"/><circle cx="344" cy="448" r="8"/><circle cx="368" cy="448" r="8"/><path d="m472 440h-40a8 8 0 0 0 0 16h40a8 8 0 0 0 0-16z"/><circle cx="40" cy="352" r="8"/><circle cx="64" cy="352" r="8"/><path d="m128 360h40a8 8 0 0 0 0-16h-40a8 8 0 0 0 0 16z"/><circle cx="40" cy="400" r="8"/><circle cx="64" cy="400" r="8"/><path d="m128 408h40a8 8 0 0 0 0-16h-40a8 8 0 0 0 0 16z"/><circle cx="40" cy="448" r="8"/><circle cx="64" cy="448" r="8"/><path d="m168 440h-40a8 8 0 0 0 0 16h40a8 8 0 0 0 0-16z"/></g></g></svg>